<svg xmlns="http://www.w3.org/2000/svg" width="21" height="22"><path fill-rule="evenodd" stroke="#2F5AC3" stroke-width="2" fill="#9DC31A" d="M10 1c4.97 0 9 4.089 9 9.133 0 5.044-4.03 9.133-9 9.133s-9-4.089-9-9.133C1 5.089 5.03 1 10 1z"/><path fill-rule="evenodd" fill="#FFF" d="M14.154 7.452a.625.625 0 0 0-.624-.626H6.741v6.894c0 .346.279.627.624.627a.625.625 0 0 0 .624-.627V9.015l4.793 4.684a.62.62 0 0 0 .883-.012.629.629 0 0 0-.012-.886L8.821 8.079h4.709c.344 0 .624-.28.624-.627z"/><path fill-rule="evenodd" stroke="#2F5AC3" stroke-width="2" fill="#9DC31A" d="M10 1c4.97 0 9 4.089 9 9.133 0 5.044-4.03 9.133-9 9.133s-9-4.089-9-9.133C1 5.089 5.03 1 10 1z"/><path fill-rule="evenodd" fill="#FFF" d="M14.154 7.452a.625.625 0 0 0-.624-.626H6.741v6.894c0 .346.279.627.624.627a.625.625 0 0 0 .624-.627V9.015l4.793 4.684a.62.62 0 0 0 .883-.012.629.629 0 0 0-.012-.886L8.821 8.079h4.709c.344 0 .624-.28.624-.627z"/></svg>