<svg xmlns="http://www.w3.org/2000/svg" width="15" height="15"><path fill="none" d="M0 0h15v15H0V0z"/><path fill-rule="evenodd" fill="#747486" d="M13.887 13.337l-3.16-3.159a5.519 5.519 0 0 0 1.361-3.635A5.55 5.55 0 0 0 6.544 1 5.55 5.55 0 0 0 1 6.543a5.551 5.551 0 0 0 5.544 5.543c1.39 0 2.661-.513 3.635-1.361l3.16 3.16a.383.383 0 0 0 .548 0 .39.39 0 0 0 0-.548zM1.776 6.543a4.77 4.77 0 0 1 4.765-4.765 4.771 4.771 0 0 1 4.766 4.765 4.774 4.774 0 0 1-4.766 4.768 4.773 4.773 0 0 1-4.765-4.768z"/></svg>