<?xml version="1.0" encoding="UTF-8" standalone="no"?>
<svg width="45px" height="45px" viewBox="0 0 45 45" version="1.1" xmlns="http://www.w3.org/2000/svg" xmlns:xlink="http://www.w3.org/1999/xlink">
    <!-- Generator: Sketch 40.2 (33826) - http://www.bohemiancoding.com/sketch -->
    <title>icon_card-add</title>
    <desc>Created with Sketch.</desc>
    <defs>
        <circle id="path-1" cx="22.5" cy="22.5" r="22.5"></circle>
        <mask id="mask-2" maskContentUnits="userSpaceOnUse" maskUnits="objectBoundingBox" x="0" y="0" width="45" height="45" fill="white">
            <use xlink:href="#path-1"></use>
        </mask>
    </defs>
    <g id="Page-1" stroke="none" stroke-width="1" fill="none" fill-rule="evenodd">
        <g id="Broadcast-line" transform="translate(-426.000000, -453.000000)">
            <g id="Content" transform="translate(-203.000000, 104.000000)">
                <g id="Gallery" transform="translate(0.000000, 233.000000)">
                    <g id="icon_card-add" transform="translate(629.000000, 116.000000)">
                        <use id="Oval-2" stroke="#C5C6C7" mask="url(#mask-2)" stroke-width="2" fill="#FFFFFF" xlink:href="#path-1"></use>
                        <path d="M23.9492706,23.632626 L23.9492706,30.5988064 C23.9492706,31.2979576 23.3818435,31.8653846 22.6826923,31.8653846 C21.9835411,31.8653846 21.4161141,31.2979576 21.4161141,30.5988064 L21.4161141,23.632626 L14.7665782,23.632626 C14.0674271,23.632626 13.5,23.0651989 13.5,22.3660477 C13.5,21.6668966 14.0674271,21.0994695 14.7665782,21.0994695 L21.4161141,21.0994695 L21.4161141,14.7665782 C21.4161141,14.0674271 21.9835411,13.5 22.6826923,13.5 C23.3818435,13.5 23.9492706,14.0674271 23.9492706,14.7665782 L23.9492706,21.0994695 L30.5988064,21.0994695 C31.2979576,21.0994695 31.8653846,21.6668966 31.8653846,22.3660477 C31.8653846,23.0651989 31.2979576,23.632626 30.5988064,23.632626 L23.9492706,23.632626 Z" id="Path" fill="#999999"></path>
                    </g>
                </g>
            </g>
        </g>
    </g>
</svg>