<?xml version="1.0" encoding="UTF-8" standalone="no"?>
<svg width="45px" height="45px" viewBox="0 0 45 45" version="1.1" xmlns="http://www.w3.org/2000/svg" xmlns:xlink="http://www.w3.org/1999/xlink">
    <!-- Generator: Sketch 40.2 (33826) - http://www.bohemiancoding.com/sketch -->
    <title>icon_card-next</title>
    <desc>Created with Sketch.</desc>
    <defs>
        <circle id="path-1" cx="22.5" cy="22.5" r="22.5"></circle>
        <mask id="mask-2" maskContentUnits="userSpaceOnUse" maskUnits="objectBoundingBox" x="0" y="0" width="45" height="45" fill="white">
            <use xlink:href="#path-1"></use>
        </mask>
    </defs>
    <g id="Page-1" stroke="none" stroke-width="1" fill="none" fill-rule="evenodd">
        <g id="Broadcast-line" transform="translate(-426.000000, -523.000000)">
            <g id="Content" transform="translate(-203.000000, 104.000000)">
                <g id="Gallery" transform="translate(0.000000, 233.000000)">
                    <g id="icon_card-next" transform="translate(629.000000, 186.000000)">
                        <use id="Oval-2" stroke="#C5C6C7" mask="url(#mask-2)" stroke-width="2" fill="#FFFFFF" xlink:href="#path-1"></use>
                        <path d="M19.9693252,15.5705521 C19.4815951,16.0582822 19.4815951,16.8404908 19.9693252,17.3282209 L25.1411043,22.5 L19.9693252,27.6717791 C19.4815951,28.1595092 19.4815951,28.9417178 19.9693252,29.4294479 C20.208589,29.6687117 20.5306748,29.797546 20.8435583,29.797546 C21.1564417,29.797546 21.4785276,29.6779141 21.7177914,29.4294479 L27.7638037,23.3834356 C28.2515337,22.8957055 28.2515337,22.1134969 27.7638037,21.6257669 L21.7269939,15.5705521 C21.2392638,15.0828221 20.4570552,15.0828221 19.9693252,15.5705521 Z" id="Shape" fill="#999999"></path>
                    </g>
                </g>
            </g>
        </g>
    </g>
</svg>