<?xml version="1.0" encoding="UTF-8" standalone="no"?>
<svg width="31px" height="24px" viewBox="0 0 31 24" version="1.1" xmlns="http://www.w3.org/2000/svg" xmlns:xlink="http://www.w3.org/1999/xlink">
    <!-- Generator: Sketch 40.2 (33826) - http://www.bohemiancoding.com/sketch -->
    <title>icon_card-camera</title>
    <desc>Created with Sketch.</desc>
    <defs></defs>
    <g id="Page-1" stroke="none" stroke-width="1" fill="none" fill-rule="evenodd">
        <g id="Broadcast-line" transform="translate(-241.000000, -389.000000)" fill="#999999">
            <g id="Content" transform="translate(-203.000000, 104.000000)">
                <g id="Gallery" transform="translate(0.000000, 233.000000)">
                    <g id="Gallery-Card" transform="translate(310.000000, 16.000000)">
                        <g id="icon_card-camera" transform="translate(134.000000, 36.615108)">
                            <g id="Capa_1">
                                <g id="Group">
                                    <path d="M29.4473154,3.80619481 L22.9505866,3.80619481 L22.7309526,2.3735659 L22.5624788,1.40771241 C22.494451,1.0186316 22.2712206,0.696025971 21.920951,0.426572435 C21.5623742,0.150807964 21.1786225,0.00626418699 20.7566781,0.00626418699 L10.1929216,0.00626418699 C9.77097712,0.00626418699 9.38291993,0.146133198 9.02829412,0.426572435 C8.67402288,0.707011672 8.48574346,1.03592824 8.42095752,1.40771241 L8.25212908,2.3735659 L8.01593137,3.80619481 L1.55273529,3.80619481 C0.691928105,3.80619481 0,4.44481465 0,5.20797027 L0,21.0933875 C0,21.8874433 0.691928105,22.5260164 1.55273529,22.5260164 L29.4473154,22.5260164 C30.3080719,22.5260164 31,21.8874433 31,21.0933875 L31,5.20797027 C31,4.44481465 30.3080719,3.80619481 29.4473154,3.80619481 L29.4473154,3.80619481 Z M29.1268807,20.797428 L1.85655556,20.797428 L1.85655556,5.51926296 L8.01593137,5.51926296 C8.94405719,5.51926296 9.74544771,4.88199881 9.87213235,4.05540661 L10.0914118,2.62277769 L10.2602402,1.73499281 L20.7227908,1.73499281 L20.8747516,2.62277769 L21.1108987,4.05540661 C21.2470049,4.88068987 22.0558922,5.51926296 22.9505359,5.51926296 L29.1268301,5.51926296 L29.1268301,20.797428 L29.1268807,20.797428 Z" id="Shape"></path>
                                    <path d="M26.1229706,9.58401911 C26.9329722,9.58401911 27.607982,8.94577325 27.607982,8.19823135 C27.607982,7.43502899 26.9498905,6.79645589 26.1229706,6.79645589 C25.2960507,6.79645589 24.6379592,7.43502899 24.6379592,8.19823135 C24.6379085,8.94577325 25.312969,9.58401911 26.1229706,9.58401911 L26.1229706,9.58401911 Z" id="Shape"></path>
                                    <path d="M15.4746225,5.97112588 C13.5680212,5.97112588 11.9141307,6.60937174 10.5471928,7.87090421 C9.1802549,9.13243667 8.4883268,10.6587947 8.4883268,12.4187507 C8.4883268,14.1783328 9.1802549,15.7046908 10.5471928,16.9662232 C11.9141307,18.2277557 13.5680212,18.8244896 15.4746225,18.8507151 C19.2551029,18.902231 22.5055948,15.8763949 22.460969,12.418704 C22.4382761,10.6431809 21.7690408,9.13243667 20.4024069,7.87085746 C19.035469,6.60937174 17.3984967,5.97112588 15.4746225,5.97112588 L15.4746225,5.97112588 Z M19.0858693,15.7671456 C18.0904755,16.685784 16.8923154,17.1373664 15.4746225,17.1373664 C14.0742026,17.1373664 12.8760931,16.6858307 11.8802941,15.7671456 C10.8844951,14.8481333 10.3952827,13.7267971 10.3952827,12.4187507 C10.3952827,11.1259908 10.8845458,10.0046078 11.8802941,9.08564226 C12.8760931,8.16695716 14.0742026,7.69980776 15.4746225,7.69980776 C16.8923154,7.69980776 18.0904755,8.16695716 19.0858693,9.08564226 C20.0816176,10.0046546 20.587799,11.1259908 20.587799,12.4187507 C20.587799,13.7268438 20.0816176,14.8481333 19.0858693,15.7671456 L19.0858693,15.7671456 Z" id="Shape"></path>
                                </g>
                            </g>
                        </g>
                    </g>
                </g>
            </g>
        </g>
    </g>
</svg>