<?xml version="1.0" encoding="UTF-8" standalone="no"?>
<svg width="18px" height="18px" viewBox="0 0 18 18" version="1.1" xmlns="http://www.w3.org/2000/svg" xmlns:xlink="http://www.w3.org/1999/xlink">
    <!-- Generator: Sketch 40.2 (33826) - http://www.bohemiancoding.com/sketch -->
    <title>menu_broadcast-add</title>
    <desc>Created with Sketch.</desc>
    <defs></defs>
    <g id="Page-1" stroke="none" stroke-width="1" fill="none" fill-rule="evenodd">
        <g id="Layout" transform="translate(-216.000000, -140.000000)" fill="#46BE8A">
            <g id="layout" transform="translate(-1.000000, -1.000000)">
                <g id="menu_broadcast-add" transform="translate(217.000000, 141.000000)">
                    <g id="Capa_1">
                        <path d="M9,0 C4.03753846,0 0,4.03719231 0,9 C0,13.9628077 4.03753846,18 9,18 C13.9624615,18 18,13.9628077 18,9 C18,4.03719231 13.9624615,0 9,0 L9,0 Z M13.3269231,9.69230769 L9.69230769,9.69230769 L9.69230769,13.5 C9.69230769,13.8821538 9.38215385,14.1923077 9,14.1923077 C8.61784615,14.1923077 8.30769231,13.8821538 8.30769231,13.5 L8.30769231,9.69230769 L4.67307692,9.69230769 C4.29092308,9.69230769 3.98076923,9.38215385 3.98076923,9 C3.98076923,8.61784615 4.29092308,8.30769231 4.67307692,8.30769231 L8.30769231,8.30769231 L8.30769231,4.84615385 C8.30769231,4.464 8.61784615,4.15384615 9,4.15384615 C9.38215385,4.15384615 9.69230769,4.464 9.69230769,4.84615385 L9.69230769,8.30769231 L13.3269231,8.30769231 C13.7090769,8.30769231 14.0192308,8.61784615 14.0192308,9 C14.0192308,9.38215385 13.7090769,9.69230769 13.3269231,9.69230769 L13.3269231,9.69230769 Z" id="Shape"></path>
                    </g>
                </g>
            </g>
        </g>
    </g>
</svg>