<?xml version="1.0" encoding="UTF-8" standalone="no"?>
<svg width="16px" height="12px" viewBox="0 0 16 12" version="1.1" xmlns="http://www.w3.org/2000/svg" xmlns:xlink="http://www.w3.org/1999/xlink">
    <!-- Generator: Sketch 40.2 (33826) - http://www.bohemiancoding.com/sketch -->
    <title>menu_attract</title>
    <desc>Created with Sketch.</desc>
    <defs></defs>
    <g id="Page-1" stroke="none" stroke-width="1" fill="none" fill-rule="evenodd" opacity="0.803171642">
        <g id="Layout" transform="translate(-35.000000, -222.000000)" fill="#DDDDDD">
            <g id="layout" transform="translate(-1.000000, -1.000000)">
                <g id="Group-5" transform="translate(22.000000, 102.000000)">
                    <g id="menu_attract" transform="translate(7.000000, 121.000000)">
                        <g id="Capa_1">
                            <g id="Group">
                                <path d="M7.39087495,11.7343372 C7.51499047,11.8086689 7.65087495,11.8437927 7.78473777,11.8437927 C8.05535148,11.8437927 8.31881719,11.7000303 8.46452116,11.4419115 L9.82134426,9.04198573 C10.1480591,8.46322336 10.7917414,8.37270355 11.2578786,8.83963425 L13.3250988,10.9083719 C13.5159291,11.0994362 13.787337,11.1781491 14.0484923,11.1168125 C14.3084923,11.0554016 14.5201168,10.8627778 14.611236,10.604659 L16.9227161,5.66186197 C17.1445934,5.03260454 17.7552793,4.38842138 18.286976,4.2231986 C18.819106,4.05760454 19.3897197,4.39807484 19.5617053,4.98292633 L19.8735464,6.04272831 C19.9363623,6.25599563 20.0702973,6.26973326 20.1723912,6.07302534 L22.0299363,2.50302534 C22.1320302,2.30631742 22.060189,2.06156494 21.8689255,1.95619365 L18.3977342,0.0445847428 C18.2064706,-0.0608608017 18.1027883,0.0272085052 18.1652432,0.240475832 C18.1652432,0.240475832 18.3058208,0.718693654 18.479828,1.30874316 C18.653402,1.89879266 18.2893587,2.5341392 17.6669038,2.72802534 L16.4918858,3.09396593 C16.2547017,3.16785207 16.0653876,3.35245603 15.9809833,3.59193623 L13.9498641,7.73906494 C13.7279869,8.36832237 13.1702973,8.49998078 12.7037991,8.03349563 L10.787337,6.11579761 C10.614124,5.9421095 10.3714526,5.86094613 10.1331132,5.89443623 C9.89354643,5.92792633 9.68228289,6.07376791 9.56091105,6.2886689 L7.10647062,10.6305006 C6.88856448,11.0158224 7.0157847,11.510154 7.39087495,11.7343372 L7.39087495,11.7343372 Z" id="Shape"></path>
                            </g>
                        </g>
                    </g>
                </g>
            </g>
        </g>
    </g>
</svg>