<?xml version="1.0" encoding="UTF-8" standalone="no"?>
<svg width="16px" height="17px" viewBox="0 0 16 17" version="1.1" xmlns="http://www.w3.org/2000/svg" xmlns:xlink="http://www.w3.org/1999/xlink">
    <!-- Generator: Sketch 40.2 (33826) - http://www.bohemiancoding.com/sketch -->
    <title>menu_channels</title>
    <desc>Created with Sketch.</desc>
    <defs></defs>
    <g id="Page-1" stroke="none" stroke-width="1" fill="none" fill-rule="evenodd" opacity="0.803171642">
        <g id="Layout" transform="translate(-34.000000, -101.000000)" fill="#DDDDDD">
            <g id="layout" transform="translate(-1.000000, -1.000000)">
                <g id="Group-5" transform="translate(22.000000, 102.000000)">
                    <g id="menu_channels" transform="translate(13.000000, 0.111111)">
                        <ellipse id="Oval" cx="2.71698113" cy="8.43140741" rx="2.71698113" ry="2.66666667"></ellipse>
                        <ellipse id="Oval" cx="13.2830189" cy="14.2222222" rx="2.71698113" ry="2.66666667"></ellipse>
                        <ellipse id="Oval" cx="13.2830189" cy="2.66666667" rx="2.71698113" ry="2.66666667"></ellipse>
                        <path d="M5.13720755,7.51407407 C5.19033962,7.51407407 5.24407547,7.50044444 5.29267925,7.47140741 L11.0007547,4.09718519 C11.1435472,4.01274074 11.189434,3.83081481 11.1033962,3.69066667 C11.0173585,3.55022222 10.832,3.50488889 10.6889057,3.58962963 L4.98113208,6.96414815 C4.83833962,7.04859259 4.79245283,7.23051852 4.87849057,7.37066667 C4.9349434,7.46311111 5.03456604,7.51407407 5.13720755,7.51407407 L5.13720755,7.51407407 Z" id="Shape"></path>
                        <path d="M11.0013585,12.7914074 L5.29358491,9.39081481 C5.15109434,9.30577778 4.96543396,9.34992593 4.87879245,9.49037037 C4.79215094,9.63022222 4.83773585,9.81244444 4.98022642,9.89718519 L10.688,13.2977778 C10.7369057,13.3271111 10.7909434,13.341037 10.8443774,13.341037 C10.9464151,13.341037 11.0457358,13.2903704 11.1027925,13.1985185 C11.189434,13.0583704 11.1441509,12.8761481 11.0013585,12.7914074 L11.0013585,12.7914074 Z" id="Shape"></path>
                    </g>
                </g>
            </g>
        </g>
    </g>
</svg>