<?xml version="1.0" encoding="UTF-8" standalone="no"?>
<svg width="16px" height="14px" viewBox="0 0 16 14" version="1.1" xmlns="http://www.w3.org/2000/svg" xmlns:xlink="http://www.w3.org/1999/xlink">
    <!-- Generator: Sketch 40.2 (33826) - http://www.bohemiancoding.com/sketch -->
    <title>menu_broadcasts</title>
    <desc>Created with Sketch.</desc>
    <defs></defs>
    <g id="Page-1" stroke="none" stroke-width="1" fill="none" fill-rule="evenodd">
        <g id="Layout" transform="translate(-34.000000, -141.000000)" fill="#FFFFFF">
            <g id="layout" transform="translate(-1.000000, -1.000000)">
                <g id="Group-5" transform="translate(22.000000, 102.000000)">
                    <g id="menu_broadcasts" transform="translate(13.000000, 40.000000)">
                        <path d="M8,6.28703704 C7.18966667,6.28703704 6.53333333,6.92513889 6.53333333,7.71296296 C6.53333333,8.50078704 7.18966667,9.13888889 8,9.13888889 C8.81033333,9.13888889 9.46666667,8.50078704 9.46666667,7.71296296 C9.46666667,6.92513889 8.81033333,6.28703704 8,6.28703704 L8,6.28703704 Z M12.4,7.71296296 C12.4,5.34949074 10.431,3.43518519 8,3.43518519 C5.569,3.43518519 3.6,5.34949074 3.6,7.71296296 C3.6,9.29574074 4.48366667,10.6717593 5.79633333,11.4132407 L6.537,10.1726852 C5.66066667,9.67717593 5.06666667,8.76814815 5.06666667,7.71296296 C5.06666667,6.13731481 6.37933333,4.86111111 8,4.86111111 C9.62066667,4.86111111 10.9333333,6.13731481 10.9333333,7.71296296 C10.9333333,8.76814815 10.3393333,9.67717593 9.463,10.1691204 L10.2036667,11.4096759 C11.5163333,10.6717593 12.4,9.29574074 12.4,7.71296296 L12.4,7.71296296 Z M8,0.583333333 C3.94833333,0.583333333 0.666666667,3.77384259 0.666666667,7.71296296 C0.666666667,10.3473611 2.14066667,12.6431019 4.32966667,13.8765278 L5.063,12.6431019 C3.314,11.659213 2.13333333,9.81976852 2.13333333,7.71296296 C2.13333333,4.56166667 4.75866667,2.00925926 8,2.00925926 C11.2413333,2.00925926 13.8666667,4.56166667 13.8666667,7.71296296 C13.8666667,9.81976852 12.686,11.659213 10.937,12.6466667 L11.6703333,13.8800926 C13.8593333,12.6431019 15.3333333,10.3473611 15.3333333,7.71296296 C15.3333333,3.77384259 12.048,0.583333333 8,0.583333333 L8,0.583333333 Z" id="Shape"></path>
                    </g>
                </g>
            </g>
        </g>
    </g>
</svg>