<?xml version="1.0" encoding="UTF-8" standalone="no"?>
<svg width="15px" height="13px" viewBox="0 0 15 13" version="1.1" xmlns="http://www.w3.org/2000/svg" xmlns:xlink="http://www.w3.org/1999/xlink">
    <!-- Generator: Sketch 40.2 (33826) - http://www.bohemiancoding.com/sketch -->
    <title>menu_audience</title>
    <desc>Created with Sketch.</desc>
    <defs></defs>
    <g id="Page-1" stroke="none" stroke-width="1" fill="none" fill-rule="evenodd" opacity="0.803171642">
        <g id="Layout" transform="translate(-35.000000, -182.000000)" fill="#DDDDDD">
            <g id="layout" transform="translate(-1.000000, -1.000000)">
                <g id="Group-5" transform="translate(22.000000, 102.000000)">
                    <g id="menu_audience" transform="translate(14.000000, 81.000000)">
                        <g id="Capa_1">
                            <path d="M8.95462963,2.27920588 C9.64074074,2.72330882 10.1218519,3.47482353 10.2094444,4.34716176 C10.4892593,4.48213235 10.7998148,4.55975 11.1290741,4.55975 C12.3311111,4.55975 13.3053704,3.55397059 13.3053704,2.31323529 C13.3053704,1.07230882 12.3311111,0.0665294118 11.1290741,0.0665294118 C9.93851852,0.0669117647 8.97277778,1.05472059 8.95462963,2.27920588 L8.95462963,2.27920588 Z M7.52888889,6.87929412 C8.73092593,6.87929412 9.70518519,5.87332353 9.70518519,4.63258824 C9.70518519,3.39185294 8.73074074,2.38607353 7.52888889,2.38607353 C6.32703704,2.38607353 5.35222222,3.39204412 5.35222222,4.63277941 C5.35222222,5.87351471 6.32703704,6.87929412 7.52888889,6.87929412 L7.52888889,6.87929412 Z M8.45203704,7.03242647 L6.60537037,7.03242647 C5.06888889,7.03242647 3.81888889,8.32305882 3.81888889,9.90925 L3.81888889,12.2406471 L3.82462963,12.2771618 L3.98018519,12.3274412 C5.44648148,12.8004118 6.72037037,12.9581324 7.76888889,12.9581324 C9.81685185,12.9581324 11.0038889,12.3553529 11.077037,12.3169265 L11.2224074,12.2410294 L11.237963,12.2410294 L11.237963,9.90925 C11.2385185,8.32305882 9.98851852,7.03242647 8.45203704,7.03242647 L8.45203704,7.03242647 Z M12.0525926,4.71307353 L10.2201852,4.71307353 C10.2003704,5.46994118 9.88740741,6.15148529 9.39240741,6.64166176 C10.7581481,7.06091176 11.7574074,8.36836765 11.7574074,9.91269118 L11.7574074,10.6311324 C13.5666667,10.5626912 14.6092593,10.0333235 14.677963,9.99776471 L14.8233333,9.92167647 L14.8388889,9.92167647 L14.8388889,7.58951471 C14.8388889,6.00351471 13.5888889,4.71307353 12.0525926,4.71307353 L12.0525926,4.71307353 Z M3.71018519,4.56013235 C4.13592593,4.56013235 4.53203704,4.43185294 4.86759259,4.21333824 C4.97425926,3.49508824 5.34722222,2.86745588 5.88,2.43998529 C5.88222222,2.39792647 5.88611111,2.35625 5.88611111,2.31380882 C5.88611111,1.07288235 4.91166667,0.0671029412 3.71018519,0.0671029412 C2.50796296,0.0671029412 1.53388889,1.07288235 1.53388889,2.31380882 C1.53388889,3.55416176 2.50796296,4.56013235 3.71018519,4.56013235 L3.71018519,4.56013235 Z M5.66462963,6.64166176 C5.17203704,6.15397059 4.86018519,5.47605882 4.83740741,4.72377941 C4.76944444,4.71861765 4.70222222,4.71307353 4.63296296,4.71307353 L2.78648148,4.71307353 C1.25,4.71307353 0,6.00351471 0,7.58951471 L0,9.92129412 L0.00574074074,9.95723529 L0.161296296,10.0078971 C1.33759259,10.387 2.38740741,10.5617353 3.29925926,10.6167941 L3.29925926,9.91269118 C3.29962963,8.36836765 4.29851852,7.06129412 5.66462963,6.64166176 L5.66462963,6.64166176 Z" id="Shape"></path>
                        </g>
                    </g>
                </g>
            </g>
        </g>
    </g>
</svg>