<?xml version="1.0" encoding="UTF-8" standalone="no"?>
<svg width="18px" height="20px" viewBox="0 0 18 20" version="1.1" xmlns="http://www.w3.org/2000/svg" xmlns:xlink="http://www.w3.org/1999/xlink">
    <!-- Generator: Sketch 40.2 (33826) - http://www.bohemiancoding.com/sketch -->
    <title>menu_autoreplies</title>
    <desc>Created with Sketch.</desc>
    <defs></defs>
    <g id="Page-1" stroke="none" stroke-width="1" fill="none" fill-rule="evenodd" opacity="0.803171642">
        <g id="Layout" transform="translate(-34.000000, -258.000000)" fill="#DDDDDD">
            <g id="layout" transform="translate(-1.000000, -1.000000)">
                <g id="Group-5" transform="translate(22.000000, 102.000000)">
                    <g id="menu_autoreplies" transform="translate(13.000000, 157.000000)">
                        <g id="Capa_1">
                            <path d="M11.0323436,6.16285847 C11.0323436,5.70269838 11.4147607,5.32989559 11.8873436,5.32989559 C12.3586564,5.32989559 12.7413497,5.70269838 12.7413497,6.16285847 C12.7413497,6.62285847 12.3586564,6.99592807 11.8873436,6.99592807 C11.4147055,6.99571462 11.0323436,6.62264501 11.0323436,6.16285847 L11.0323436,6.16285847 Z M6.00007362,6.99571462 C6.47155215,6.99571462 6.85419018,6.62264501 6.85419018,6.16248492 C6.85419018,5.70248492 6.47149693,5.32962877 6.00007362,5.32962877 C5.5274908,5.32962877 5.14507362,5.70248492 5.14507362,6.16248492 C5.14507362,6.62264501 5.5274908,6.99571462 6.00007362,6.99571462 L6.00007362,6.99571462 Z M8.94257669,19.9529327 C10.2288589,19.9529327 11.3222209,19.1555104 11.7373252,18.0401972 L6.14760736,18.0401972 C6.5628773,19.1554571 7.65590798,19.9529327 8.94257669,19.9529327 L8.94257669,19.9529327 Z M0.0314723926,16.5687842 C0.0314723926,16.127942 0.296889571,15.7503898 0.678809816,15.5710858 L0.678809816,10.8485081 C0.678809816,9.9170348 1.42288344,9.15643387 2.36357669,9.09613225 L2.36357669,6.81080742 C2.36357669,6.81080742 2.59244172,2.64572622 6.14766258,1.35014849 C7.20369939,0.96549884 8.1678589,0.809941995 9.00325767,0.780698376 C9.8392638,0.809941995 10.8034785,0.96549884 11.8584663,1.34993503 C15.4143497,2.64551276 15.6434908,6.81059397 15.6434908,6.81059397 L15.6434908,9.09570534 C16.5835215,9.15622042 17.3277607,9.91708817 17.3277607,10.8482947 L17.3277607,15.5711392 C17.7096258,15.7504432 17.9750982,16.1282622 17.9750982,16.5688376 C17.9750982,17.181993 17.4648589,17.6791346 16.8355767,17.6791346 C16.2062945,17.6791346 15.6960552,17.1820464 15.6960552,16.5688376 C15.6960552,16.1279954 15.9617485,15.7504432 16.3428405,15.5711392 L16.3428405,12.414109 C16.1310368,12.5197169 15.8933926,12.5834872 15.6437117,12.5999234 L15.6437117,13.6971995 C15.6501718,13.785891 15.6576258,13.8738353 15.6576258,13.9647146 C15.6576258,14.060877 15.6512209,14.1559722 15.6437117,14.2511206 L15.6437117,14.276522 L15.6424969,14.276522 C15.4907117,16.1046218 14.0231595,17.5690441 12.1630859,17.7687865 L12.1646319,17.7937077 L9.00325767,17.7937077 L5.84149693,17.7937077 L5.84359509,17.7687865 C3.98357669,17.5690441 2.51641104,16.1045684 2.36462577,14.276522 L2.36357669,14.276522 L2.36357669,14.2511206 C2.3565092,14.1559722 2.34966258,14.060877 2.34966258,13.9647146 C2.34966258,13.8740487 2.35673006,13.785891 2.36357669,13.6971995 L2.36357669,12.6000835 C2.11295706,12.5834339 1.8753681,12.5201439 1.66356442,12.4140557 L1.66356442,15.5716195 C2.04531902,15.7509234 2.31090184,16.128529 2.31090184,16.5688376 C2.31090184,17.1825267 1.80077301,17.6794014 1.17110429,17.6794014 C0.542042945,17.6792947 0.0314723926,17.1824733 0.0314723926,16.5687842 L0.0314723926,16.5687842 Z M10.9050184,10.760297 C10.9050184,10.4654594 10.6596994,10.2258005 10.3566258,10.2258005 C10.0530552,10.2258005 9.8077362,10.4651392 9.8077362,10.760297 C9.8077362,11.0556682 10.0530552,11.2952738 10.3566258,11.2952738 C10.6596994,11.2952738 10.9050184,11.0556682 10.9050184,10.760297 L10.9050184,10.760297 Z M12.2552945,10.760297 C12.2552945,10.4654594 12.0099755,10.2258005 11.7069018,10.2258005 C11.4038282,10.2258005 11.1580675,10.4651392 11.1580675,10.760297 C11.1580675,11.0556682 11.4038834,11.2952738 11.7069018,11.2952738 C12.0099202,11.2952738 12.2552945,11.0556682 12.2552945,10.760297 L12.2552945,10.760297 Z M13.6061227,10.760297 C13.6061227,10.4654594 13.3608037,10.2258005 13.0577301,10.2258005 C12.7541595,10.2258005 12.5088957,10.4651392 12.5088957,10.760297 C12.5088957,11.0556682 12.7541595,11.2952738 13.0577301,11.2952738 C13.3608037,11.2952738 13.6061227,11.0556682 13.6061227,10.760297 L13.6061227,10.760297 Z M4.38542945,6.31713457 C4.38542945,7.73614385 5.52506135,7.82894432 5.52506135,7.82894432 C5.92166871,7.95109513 6.75977301,7.89047332 7.13898773,7.82894432 C7.488,7.77152436 8.76865031,7.66367517 8.97255828,7.64611833 C8.98034356,7.64686543 8.99265644,7.64814617 9.0029816,7.64857309 C9.01380368,7.64809281 9.02595092,7.64686543 9.03312883,7.64611833 C9.23725767,7.66340835 10.5174663,7.77152436 10.866865,7.82894432 C11.2467423,7.89047332 12.0842393,7.95109513 12.4810675,7.82894432 C12.4810675,7.82894432 13.6203129,7.73641067 13.6203129,6.31713457 C13.6203129,6.31713457 13.6203129,4.74363573 12.4810675,3.7872413 C11.3760552,2.85966357 9.71525153,2.65842691 9.06349693,2.64647332 L9.06349693,2.6454594 C9.05422086,2.6454594 9.04290184,2.6462065 9.03307362,2.6462065 C9.02357669,2.6462065 9.01170552,2.6454594 9.00292638,2.6454594 C8.99365031,2.6454594 8.98205521,2.6462065 8.97250307,2.6462065 C8.96284049,2.6462065 8.9512454,2.6454594 8.9422454,2.6454594 L8.9422454,2.64647332 C8.29115337,2.65842691 6.62985276,2.85966357 5.52500613,3.7872413 C4.38542945,4.74363573 4.38542945,6.31713457 4.38542945,6.31713457 L4.38542945,6.31713457 Z" id="Robo.to"></path>
                        </g>
                    </g>
                </g>
            </g>
        </g>
    </g>
</svg>