<?xml version="1.0" encoding="UTF-8" standalone="no"?>
<svg width="16px" height="16px" viewBox="0 0 16 16" version="1.1" xmlns="http://www.w3.org/2000/svg" xmlns:xlink="http://www.w3.org/1999/xlink">
    <!-- Generator: Sketch 40.2 (33826) - http://www.bohemiancoding.com/sketch -->
    <title>menu_settings</title>
    <desc>Created with Sketch.</desc>
    <defs></defs>
    <g id="Page-1" stroke="none" stroke-width="1" fill="none" fill-rule="evenodd" opacity="0.803171642">
        <g id="Layout" transform="translate(-35.000000, -300.000000)" fill="#DDDDDD">
            <g id="layout" transform="translate(-1.000000, -1.000000)">
                <g id="Group-5" transform="translate(22.000000, 102.000000)">
                    <g id="menu_settings" transform="translate(12.000000, 196.000000)">
                        <g id="Capa_1">
                            <g id="Group">
                                <path d="M16.8483008,11.887719 L16.0529343,11.5947495 C16.1155908,11.0148185 16.0949914,10.4237296 15.9859861,9.83635998 L16.7538868,9.48245047 C17.2336817,9.261865 17.4439674,8.69137547 17.2228097,8.21186672 L16.7744862,7.23911627 C16.5536146,6.75960751 15.9839834,6.54874955 15.5050469,6.76962112 L14.7360018,7.12410283 C14.3603485,6.65861313 13.9243274,6.25921324 13.443102,5.92933639 L13.7366438,5.13540036 C13.9191775,4.64015594 13.665118,4.08797701 13.1701597,3.90487104 L12.1645074,3.53350925 C11.6847125,3.35698365 11.1116481,3.62077068 10.9348364,4.09970723 L10.6415807,4.89450157 C10.062222,4.83270331 9.47113304,4.85273052 8.88319122,4.96116359 L8.52928172,4.19297683 C8.30841014,3.71346808 7.73820672,3.50289622 7.25927017,3.72348169 L6.28566141,4.171233 C5.80615266,4.39239068 5.596153,4.96316631 5.81645237,5.44181675 L6.17036187,6.20971741 C5.70573048,6.58594295 5.30547228,7.02196403 4.97616764,7.50376161 L4.18251771,7.21021986 C3.70329506,7.03169154 3.12937229,7.29605078 2.95170228,7.77641784 L2.58062659,8.78207015 C2.49222074,9.02239673 2.50252046,9.28246442 2.6092369,9.51478012 C2.71681166,9.74709582 2.90792851,9.92390752 3.14711068,10.011169 L3.94247723,10.3052829 C3.87953455,10.8843555 3.90013397,11.4765889 4.00942535,12.0636724 L3.24066639,12.4175819 C2.76115763,12.6381674 2.55115798,13.2080847 2.77174345,13.6873074 L3.22035307,14.6612022 C3.44122464,15.1404249 4.01085586,15.3509967 4.49007851,15.1298391 L5.25883747,14.7765018 C5.63449081,15.2417054 6.07022579,15.6408192 6.55202337,15.970696 L6.25848162,16.7652042 C6.16921746,17.0049586 6.17951717,17.2644541 6.28709192,17.497342 C6.39323616,17.7296577 6.58492522,17.9070416 6.8246796,17.9960197 L7.83033191,18.3668092 C8.06951408,18.4555012 8.33015398,18.4449154 8.56246967,18.338485 C8.79507147,18.2311964 8.97159707,18.0400795 9.05971682,17.8000391 L9.35354468,17.0049586 C9.9329034,17.0679013 10.5245646,17.0470158 11.1122203,16.9388688 L11.4655576,17.7070556 C11.6864291,18.1859921 12.2569187,18.396564 12.7358552,18.1756924 L13.7091779,17.727655 C14.1892588,17.5070695 14.3995446,16.9371522 14.1781008,16.4576434 L13.8241913,15.6894567 C14.2893949,15.3135172 14.689367,14.8774961 15.0180994,14.3962708 L15.8128938,14.6900986 C16.0535065,14.7790767 16.3135742,14.7679187 16.546176,14.66063 C16.7779195,14.5536275 16.954159,14.3625106 17.0428509,14.1230423 L17.4139266,13.11739 C17.5973187,12.6227178 17.3432591,12.0711111 16.8483008,11.887719 L16.8483008,11.887719 Z M11.5817154,14.3891182 C11.0798906,14.6205756 10.5474528,14.7370195 9.99870711,14.7370195 C8.52470407,14.7370195 7.17429756,13.872416 6.55831764,12.5348842 C5.68513106,10.6377347 6.5171188,8.38438687 8.41312387,7.51120029 C8.91466256,7.2797429 9.44710038,7.16301285 9.99498777,7.16301285 C11.4687047,7.16301285 12.8202556,8.02733024 13.4365217,9.36514821 C14.3097082,11.2622977 13.4774344,13.5156455 11.5817154,14.3891182 L11.5817154,14.3891182 Z" id="Shape"></path>
                            </g>
                        </g>
                    </g>
                </g>
            </g>
        </g>
    </g>
</svg>