<?xml version="1.0" encoding="UTF-8" standalone="no"?>
<svg width="105px" height="27px" viewBox="0 0 105 27" version="1.1" xmlns="http://www.w3.org/2000/svg" xmlns:xlink="http://www.w3.org/1999/xlink">
    <!-- Generator: Sketch 40.2 (33826) - http://www.bohemiancoding.com/sketch -->
    <title>outloud_logo</title>
    <desc>Created with Sketch.</desc>
    <defs>
        <polygon id="path-1" points="15.3460029 25.3333333 0.0142235294 25.3333333 0.0142235294 0.00955974843 30.6777824 0.00955974843 30.6777824 25.3333333"></polygon>
    </defs>
    <g id="Page-1" stroke="none" stroke-width="1" fill="none" fill-rule="evenodd">
        <g id="Layout" transform="translate(-25.000000, -21.000000)">
            <g id="layout" transform="translate(-1.000000, -1.000000)">
                <g id="outloud_logo" transform="translate(26.000000, 22.000000)">
                    <g id="Group-3" transform="translate(0.368691, 0.793548)">
                        <mask id="mask-2" fill="white">
                            <use xlink:href="#path-1"></use>
                        </mask>
                        <g id="Clip-2"></g>
                        <path d="M26.2206024,0.864679245 C26.2184688,0.862050314 26.21515,0.861333333 26.2130165,0.858943396 C25.7140076,0.313559748 25.0068612,0 24.2696082,0 C22.8114594,0 21.62498,1.19425157 21.62498,2.66167296 C21.62498,3.26322013 21.8295618,3.85281761 22.2015071,4.32172327 C22.22142,4.3470566 22.2515265,4.35613836 22.2733359,4.37884277 C22.2937229,4.40608805 22.3015459,4.43906918 22.3247776,4.46464151 C24.3006629,6.63016352 25.3885259,9.44264151 25.3885259,12.3846541 C25.3885259,15.3560629 24.2812241,18.1874214 22.2712024,20.3613082 C22.26575,20.367044 22.2581641,20.368717 22.2527118,20.3746918 C22.1936841,20.4375472 22.0656724,20.5436604 21.8663059,20.5436604 C21.5744865,20.5436604 21.3371906,20.3051447 21.3371906,20.0111824 C21.3371906,19.8522516 21.4075971,19.7024025 21.5294453,19.6001132 C21.5327641,19.5972453 21.5339494,19.5931824 21.5372682,19.5903145 C21.5396388,19.5876855 21.5429576,19.5869686 21.5453282,19.5845786 C23.3415229,17.6162264 24.3305324,15.0594717 24.3305324,12.3846541 C24.3305324,9.61830189 23.2815471,6.99749686 21.3765424,5.00428931 C21.3651635,4.99257862 21.3497547,4.98875472 21.3379018,4.97752201 C20.8422118,4.4648805 20.1587712,4.16781132 19.4468835,4.16781132 C17.9887347,4.16781132 16.8022553,5.36206289 16.8022553,6.82972327 C16.8022553,7.46449057 17.0279353,8.07942138 17.4375729,8.56027673 C17.44587,8.57031447 17.4584341,8.57318239 17.4672053,8.58274214 C17.4778729,8.59445283 17.4811918,8.60950943 17.4923335,8.62074214 C18.4912994,9.62571069 19.0412759,10.9621635 19.0412759,12.3846541 C19.0412759,13.8069057 18.4912994,15.1440755 17.4923335,16.149044 C17.4880665,16.1533459 17.4868812,16.1590818 17.4828512,16.1633836 C17.4674424,16.1791572 17.4465812,16.1856101 17.4318835,16.2025786 C17.3723818,16.2711698 17.2412882,16.3866038 17.0319653,16.3866038 C16.7401459,16.3866038 16.5030871,16.1480881 16.5030871,15.8543648 C16.5030871,15.6483522 16.6121341,15.5178616 16.6770882,15.4585912 C16.6808812,15.4552453 16.6823035,15.4502264 16.6858594,15.4466415 C16.6927341,15.4404277 16.7015053,15.4387547 16.7081429,15.4323019 C17.5305,14.6242642 17.9835194,13.5418616 17.9835194,12.3846541 C17.9835194,10.0363019 16.0851524,8.12578616 13.7520194,8.12578616 L3.17350647,8.12578616 C1.42353824,8.12578616 0,9.55855346 0,11.3199371 L0,13.4493711 C0,15.2107547 1.42353824,16.643522 3.17658824,16.643522 L3.17706235,16.643522 C3.20029412,16.643522 5.11928529,16.6731572 6.33990118,17.898 C7.04657353,18.6070943 7.40500647,19.6177987 7.40500647,20.9023899 C7.40500647,21.4903145 7.87865,21.9671069 8.46276294,21.9671069 L11.6362694,21.9671069 C12.2206194,21.9671069 12.6942629,21.4903145 12.6942629,20.9023899 L12.6942629,15.578805 C12.6942629,14.9908805 12.2206194,14.5140881 11.6362694,14.5140881 C11.0521565,14.5140881 10.5785129,14.9908805 10.5785129,15.578805 L10.5785129,19.837673 L9.45461706,19.837673 C9.27540059,18.4486415 8.73253588,17.2919119 7.83360882,16.3897107 C5.99213588,14.5420503 3.32854294,14.5140881 3.17658824,14.5140881 L3.17350647,14.5140881 C2.59034176,14.5140881 2.11575,14.0363396 2.11575,13.4493711 L2.11575,11.3199371 C2.11575,10.7329686 2.59034176,10.2552201 3.17350647,10.2552201 L13.7520194,10.2552201 C14.9188229,10.2552201 15.8677694,11.210239 15.8677694,12.3846541 C15.8677694,12.9632579 15.6416153,13.5045786 15.2298441,13.908956 C15.2265253,13.9123019 15.2255771,13.9170818 15.2220212,13.9204277 C14.69338,14.4215975 14.3873371,15.1218491 14.3873371,15.8543648 C14.3873371,17.3220252 15.5738165,18.5160377 17.0319653,18.5160377 C17.7500165,18.5160377 18.4275306,18.2134717 18.9253541,17.6965283 C18.9447929,17.6797987 18.9696841,17.6733459 18.9881747,17.6547044 C20.3868218,16.2477484 21.1570259,14.3761887 21.1570259,12.3846541 C21.1570259,10.4227547 20.4062606,8.57891824 19.0462541,7.17937107 C19.0450688,7.1781761 19.0448318,7.17674214 19.0438835,7.17530818 C18.9865153,7.10791195 18.9177682,6.99295597 18.9177682,6.82972327 C18.9177682,6.536 19.1550641,6.29724528 19.4468835,6.29724528 C19.6467241,6.29724528 19.77521,6.40383648 19.8342376,6.46740881 C19.8389788,6.47266667 19.8458535,6.47433962 19.8508318,6.47935849 C19.8513059,6.47983648 19.8513059,6.48031447 19.85178,6.48079245 C21.3755941,8.07535849 22.2147824,10.1720503 22.2147824,12.3846541 C22.2147824,14.5243648 21.42348,16.569673 19.9876147,18.1444025 C19.9757618,18.1575472 19.9724429,18.1745157 19.9613012,18.1881384 C19.4959547,18.6804654 19.2216776,19.3228805 19.2216776,20.0111824 C19.2216776,21.4788428 20.4081571,22.6730943 21.8663059,22.6730943 C22.5781935,22.6730943 23.2642418,22.3760252 23.7604059,21.8621887 C23.7724959,21.850478 23.78909,21.8466541 23.8007059,21.8339874 C26.1890735,19.2626541 27.5040388,15.9067044 27.5040388,12.3846541 C27.5040388,8.90753459 26.2179947,5.58361006 23.8827282,3.0247044 C23.8775129,3.01896855 23.8701641,3.0170566 23.8649488,3.01155975 C23.8604447,3.0058239 23.8599706,2.99865409 23.8554665,2.99291824 C23.8033135,2.92743396 23.74073,2.81630189 23.74073,2.66167296 C23.74073,2.36794969 23.9777888,2.12943396 24.2696082,2.12943396 C24.4720565,2.12943396 24.6007794,2.23745912 24.6590959,2.30198742 C24.6602812,2.30318239 24.6617035,2.30366038 24.6628888,2.30485535 C27.1771347,5.06069182 28.5620324,8.64057862 28.5620324,12.3846541 C28.5620324,16.6086289 26.7701047,20.6512075 23.6461435,23.4768302 C23.2118518,23.8697358 23.1760559,24.5425031 23.5667288,24.9803396 C23.7753406,25.2143145 24.0640782,25.3333333 24.3537641,25.3333333 C24.6052835,25.3333333 24.8584624,25.2434717 25.0604365,25.0604025 C28.6300682,21.8318365 30.6777824,17.2118491 30.6777824,12.3846541 C30.6777824,8.1054717 29.0949406,4.01413836 26.2206024,0.864679245" id="Fill-1" fill="#FFFFFF" mask="url(#mask-2)"></path>
                    </g>
                    <path d="M43.996064,10.6729358 C43.135232,10.6729358 42.42272,10.9792557 41.817632,11.6093167 C41.209088,12.2434426 40.913312,12.9751263 40.913312,13.8464686 C40.913312,14.7183917 41.209088,15.4500754 41.817632,16.0833302 C42.422144,16.7133912 43.134368,17.0197111 43.996064,17.0197111 C44.856896,17.0197111 45.569408,16.7133912 46.174208,16.0833302 C46.782752,15.4492043 47.078816,14.7175206 47.078816,13.8464686 C47.078816,12.975707 46.782752,12.2440233 46.174208,11.6093167 C45.568832,10.9792557 44.85632,10.6729358 43.996064,10.6729358 L43.996064,10.6729358 Z M43.996064,19.3210305 C42.50768,19.3210305 41.227232,18.7850432 40.190144,17.7278764 C39.153632,16.6727421 38.62832,15.3667447 38.62832,13.8464686 C38.62832,12.3264829 39.153632,11.0204855 40.190144,9.96477049 C41.227808,8.90760369 42.508256,8.3719067 43.996064,8.3719067 C45.483296,8.3719067 46.763744,8.90760369 47.801984,9.96477049 C48.838496,11.0210662 49.363808,12.3267732 49.363808,13.8464686 C49.363808,15.3664544 48.838496,16.6724517 47.802272,17.7278764 C46.76432,18.7850432 45.483584,19.3210305 43.996064,19.3210305 L43.996064,19.3210305 Z" id="Fill-4" fill="#FFFFFF"></path>
                    <path d="M55.016672,19.1143009 C53.564288,19.1143009 52.376,18.5896372 51.484928,17.5551177 C50.607104,16.5368579 50.162144,15.2424746 50.162144,13.708552 L50.162144,9.76355747 C50.162144,9.12797985 50.673632,8.61289776 51.30464,8.61289776 C51.935648,8.61289776 52.447136,9.12797985 52.447136,9.76355747 L52.447136,13.708552 C52.447136,14.6066067 52.679552,15.3638412 53.138624,15.9590601 C53.58128,16.5339544 54.195296,16.8132718 55.016672,16.8132718 C55.788512,16.8132718 56.41952,16.560957 56.945408,16.04181 C57.277184,15.7140041 57.523136,15.3467105 57.68672,14.9315091 C57.840512,14.5424392 57.89408,14.1205597 57.89408,13.701874 L57.89408,9.76355747 C57.89408,9.12797985 58.405568,8.61289776 59.036576,8.61289776 C59.667584,8.61289776 60.179072,9.12797985 60.179072,9.76355747 L60.179072,18.3135137 C60.179072,18.9490913 59.667584,19.4641734 59.036576,19.4641734 C58.405568,19.4641734 57.89408,18.9490913 57.89408,18.3135137 L57.89408,18.1776296 C57.051968,18.7998511 56.087168,19.1143009 55.016672,19.1143009" id="Fill-5" fill="#FFFFFF"></path>
                    <path d="M67.949312,17.894828 C67.949312,18.5301153 67.437824,19.0451974 66.806816,19.0451974 L66.345152,19.0451974 C65.333984,19.0451974 64.462496,18.6834205 63.75488,17.9706096 C63.046976,17.258089 62.68784,16.391973 62.68784,15.3969412 L62.68784,10.9142172 L62.119904,10.9142172 C61.488896,10.9142172 60.977408,10.3988447 60.977408,9.76355747 C60.977408,9.12797985 61.488896,8.61289776 62.119904,8.61289776 L62.68784,8.61289776 L62.68784,7.00725854 C62.68784,6.37168092 63.199328,5.85659883 63.830336,5.85659883 C64.461344,5.85659883 64.972832,6.37168092 64.972832,7.00725854 L64.972832,8.61289776 L66.841088,8.61289776 C67.472096,8.61289776 67.983584,9.12797985 67.983584,9.76355747 C67.983584,10.3988447 67.472096,10.9142172 66.841088,10.9142172 L64.972832,10.9142172 L64.972832,15.3969412 C64.972832,15.779333 65.099264,16.0929118 65.359616,16.3542274 C65.619968,16.6167044 65.941952,16.7441683 66.345152,16.7441683 L66.806816,16.7441683 C67.437824,16.7441683 67.949312,17.2592504 67.949312,17.894828" id="Fill-6" fill="#FFFFFF"></path>
                    <path d="M69.924416,19.0451974 L69.924416,19.0451974 C69.293408,19.0451974 68.78192,18.5301153 68.78192,17.894828 L68.78192,5.31886939 C68.78192,4.68358212 69.293408,4.16850002 69.924416,4.16850002 C70.555424,4.16850002 71.066912,4.68358212 71.066912,5.31886939 L71.066912,17.894828 C71.066912,18.5301153 70.555424,19.0451974 69.924416,19.0451974" id="Fill-7" fill="#FFFFFF"></path>
                    <path d="M75.05456,11.6093167 C74.446016,12.2434426 74.149952,12.9751263 74.149952,13.8464686 C74.149952,14.7183917 74.446016,15.4500754 75.05456,16.0833302 C75.659072,16.7133912 76.371584,17.0197111 77.232992,17.0197111 C78.093824,17.0197111 78.806336,16.7133912 79.411136,16.0833302 C80.01968,15.4494947 80.315744,14.7181013 80.315744,13.8464686 C80.315744,12.9754166 80.01968,12.2437329 79.411136,11.6093167 C78.80576,10.9792557 78.093248,10.6729358 77.232992,10.6729358 C76.37216,10.6729358 75.659648,10.9792557 75.05456,11.6093167 L75.05456,11.6093167 Z M77.232992,19.3210305 C75.744608,19.3210305 74.463872,18.7850432 73.426784,17.7278764 C72.39056,16.6727421 71.865248,15.3667447 71.865248,13.8464686 C71.865248,12.3264829 72.39056,11.0204855 73.426784,9.96477049 C74.464448,8.90760369 75.745184,8.3719067 77.232992,8.3719067 C78.720224,8.3719067 80.00096,8.90760369 81.038912,9.96477049 C82.075136,11.0210662 82.600736,12.3267732 82.600736,13.8464686 C82.600736,15.3664544 82.075136,16.6724517 81.038912,17.7278764 C80.001248,18.7850432 78.7208,19.3210305 77.232992,19.3210305 L77.232992,19.3210305 Z" id="Fill-8" fill="#FFFFFF"></path>
                    <path d="M88.253312,19.1143009 C86.800928,19.1143009 85.612928,18.5896372 84.721568,17.5551177 C83.844032,16.5368579 83.398784,15.2424746 83.398784,13.708552 L83.398784,9.76355747 C83.398784,9.12797985 83.910272,8.61289776 84.54128,8.61289776 C85.172288,8.61289776 85.683776,9.12797985 85.683776,9.76355747 L85.683776,13.708552 C85.683776,14.6066067 85.91648,15.3638412 86.375264,15.9590601 C86.81792,16.5339544 87.431936,16.8132718 88.253312,16.8132718 C89.02544,16.8132718 89.656448,16.560957 90.182048,16.04181 C90.713408,15.5171464 91.023872,14.891731 91.13072,14.1307219 L91.13072,9.76355747 C91.13072,9.12797985 91.642496,8.61289776 92.273216,8.61289776 C92.904224,8.61289776 93.415712,9.12797985 93.415712,9.76355747 L93.415712,18.3056742 C93.415712,18.9412519 92.904224,19.4563339 92.273216,19.4563339 C91.642496,19.4563339 91.13072,18.9412519 91.13072,18.3056742 L91.13072,18.1776296 C90.288608,18.7998511 89.324096,19.1143009 88.253312,19.1143009" id="Fill-9" fill="#FFFFFF"></path>
                    <path d="M99.58208,10.6729358 C98.721248,10.6729358 98.009024,10.9792557 97.403648,11.6093167 C96.795104,12.2434426 96.499328,12.9751263 96.499328,13.8464686 C96.499328,14.7183917 96.795104,15.4500754 97.403648,16.0833302 C98.008448,16.7133912 98.72096,17.0197111 99.58208,17.0197111 C100.258592,17.0197111 100.84064,16.8301121 101.360768,16.4395905 C101.365952,16.4358159 101.370848,16.4320414 101.376032,16.4279764 C102.07904,15.8948926 102.459488,15.0334222 102.459488,14.1469816 L102.459488,13.5456653 C102.459488,12.6598054 102.079328,11.7989157 101.376896,11.2652511 C101.371712,11.2611862 101.36624,11.2571213 101.360768,11.2530564 C100.840064,10.8628251 100.258016,10.6729358 99.58208,10.6729358 L99.58208,10.6729358 Z M99.58208,19.3210305 C98.093984,19.3210305 96.81296,18.7850432 95.77616,17.7278764 C94.739936,16.6727421 94.214336,15.3667447 94.214336,13.8464686 C94.214336,12.3264829 94.739936,11.0204855 95.77616,9.96477049 C96.813824,8.90760369 98.094272,8.3719067 99.58208,8.3719067 C100.651712,8.3719067 101.6168,8.64977229 102.459488,9.19969647 L102.459488,5.31886939 C102.459488,4.68358212 102.970976,4.16850002 103.601984,4.16850002 C104.232992,4.16850002 104.74448,4.68358212 104.74448,5.31886939 L104.74448,18.3068356 C104.74448,18.9424133 104.232992,19.4574954 103.601984,19.4574954 C102.970976,19.4574954 102.459488,18.9424133 102.459488,18.3068356 L102.472736,18.4804653 C101.62976,19.0303895 100.652288,19.3210305 99.58208,19.3210305 L99.58208,19.3210305 Z" id="Fill-10" fill="#FFFFFF"></path>
                </g>
            </g>
        </g>
    </g>
</svg>