<svg xmlns="http://www.w3.org/2000/svg" width="104" height="34"><path fill-rule="evenodd" fill="#96B0F3" d="M98.866 33.996H5.506c-2.831 0-5.134-2.256-5.134-5.029V5.02c0-2.773 2.303-5.029 5.134-5.029h93.36c2.83 0 5.133 2.256 5.133 5.029v23.947c0 2.773-2.303 5.029-5.133 5.029zm3.92-28.976c0-2.118-1.758-3.841-3.92-3.841H5.506c-2.162 0-3.921 1.723-3.921 3.841v23.947c0 2.118 1.759 3.841 3.921 3.841h93.36c2.162 0 3.92-1.723 3.92-3.841V5.02zm-8.021 21.106l1.584-3.363-2.807-6.249h1.389l2.03 4.793h.028l1.974-4.793h1.389l-4.267 9.612h-1.32zm-2.683-3.866h-.056c-.509.762-1.255 1.144-2.238 1.144-.723 0-1.327-.205-1.813-.613-.487-.409-.73-.949-.73-1.62 0-.727.287-1.296.862-1.709.574-.413 1.283-.62 2.126-.62.751 0 1.367.136 1.849.409v-.191c0-.49-.172-.883-.514-1.178-.343-.295-.765-.442-1.265-.442-.371 0-.707.086-1.008.259a1.345 1.345 0 0 0-.619.707l-1.167-.49c.157-.399.467-.769.931-1.11.463-.34 1.075-.51 1.835-.51.871 0 1.593.25 2.168.749.575.499.862 1.203.862 2.111v4.03h-1.223v-.926zm-1.626-2.383c-.622 0-1.089.132-1.404.395-.315.263-.473.571-.473.926 0 .326.143.585.431.776.287.19.616.286.987.286.528 0 1.007-.193 1.439-.579.431-.386.646-.842.646-1.368-.362-.291-.903-.436-1.626-.436zm-5.24-6.44h1.278v9.749h-1.278v-9.749zm-3.948 5.8h-2.112v3.949h-1.279v-9.749h3.391c.843 0 1.573.274 2.189.823.617.55.925 1.242.925 2.077s-.308 1.527-.925 2.076a3.182 3.182 0 0 1-2.189.824zm1.321-4.071c-.325-.354-.756-.531-1.293-.531h-2.14v3.404h2.14c.537 0 .968-.177 1.293-.531.324-.354.486-.744.486-1.171 0-.427-.162-.817-.486-1.171zm-13.858 4.915c.037.672.266 1.203.688 1.593.421.39.915.586 1.48.586.917 0 1.538-.382 1.863-1.144l1.139.463c-.222.517-.588.951-1.098 1.3-.509.35-1.135.525-1.876.525-1.029 0-1.865-.336-2.509-1.008-.644-.671-.966-1.521-.966-2.546 0-.972.313-1.806.938-2.506.626-.698 1.425-1.048 2.398-1.048 1.01 0 1.818.323 2.425.967.607.644.911 1.507.911 2.587l-.014.231h-5.379zm3.496-2.124c-.33-.345-.819-.517-1.467-.517-.472 0-.882.145-1.23.435-.347.291-.586.681-.716 1.172h3.948c-.028-.382-.207-.745-.535-1.09zm-5.409-8.04c0-.058-.198-.362-.592-.913-.413-.58-.648-.977-.705-1.19h-.035c.036.307.054.586.054.834 0 .347.01.77.03 1.269h-.529a29.948 29.948 0 0 0 0-2.744h.639c0 .075.177.372.531.892.377.552.594.926.65 1.123h.032a7.666 7.666 0 0 1-.052-.843c0-.381-.01-.771-.03-1.172h.538c-.02.349-.03.785-.03 1.309 0 .528.01 1.006.03 1.435h-.531zm-3.789.076a1.28 1.28 0 0 1-.951-.391c-.255-.261-.383-.592-.383-.994 0-.431.135-.788.405-1.072a1.323 1.323 0 0 1 1-.426c.378 0 .695.13.95.39.256.26.383.591.383.994 0 .432-.134.789-.404 1.073-.27.284-.603.426-1 .426zm.581-2.152a.717.717 0 0 0-.568-.274c-.21 0-.387.092-.534.276-.146.184-.219.417-.219.698 0 .292.077.53.231.713a.714.714 0 0 0 .567.275c.209 0 .387-.092.533-.277.147-.185.22-.417.22-.696 0-.294-.077-.532-.23-.715zm-.675 9.599h.056v-.926h1.223v6.331c0 1.144-.339 2.013-1.015 2.608-.676.594-1.501.891-2.474.891-.806 0-1.464-.197-1.974-.592-.51-.395-.875-.847-1.097-1.355l1.167-.476c.13.363.368.667.716.912a2.01 2.01 0 0 0 1.188.368c.704 0 1.258-.207 1.661-.62.404-.413.605-.973.605-1.681v-.64h-.056c-.222.326-.537.599-.945.817a2.874 2.874 0 0 1-1.376.327c-.88 0-1.64-.341-2.279-1.022-.64-.681-.96-1.525-.96-2.532 0-1.008.32-1.852.96-2.533.639-.68 1.399-1.021 2.279-1.021.509 0 .968.109 1.376.327.408.218.723.49.945.817zm-2.112 0c-.594 0-1.104.22-1.529.66-.427.441-.64 1.024-.64 1.75s.213 1.309.64 1.749c.425.44.935.661 1.529.661.602 0 1.114-.218 1.536-.654.421-.435.632-1.021.632-1.756 0-.736-.211-1.321-.632-1.756a2.054 2.054 0 0 0-1.536-.654zm-1.926-8.564c-.067 0-.115-.002-.144-.004 0 .264.008.612.024 1.045h-.605c.019-.406.028-.885.028-1.435 0-.506-.009-.942-.028-1.309h.374c.053 0 .155-.002.306-.006.15-.004.281-.006.391-.006.273 0 .503.06.691.181.188.121.282.304.282.55 0 .336-.128.583-.382.744-.255.16-.567.24-.937.24zm.153-1.319c-.102 0-.21.01-.323.031.016.266.024.567.024.902.036.003.077.004.125.004.523 0 .785-.162.785-.486 0-.301-.204-.451-.611-.451zm-2.733 1.319c-.067 0-.115-.002-.144-.004 0 .264.008.612.024 1.045h-.605c.019-.406.028-.885.028-1.435 0-.506-.009-.942-.028-1.309h.375c.053 0 .155-.002.305-.006.151-.004.281-.006.392-.006.272 0 .502.06.69.181.188.121.282.304.282.55 0 .336-.127.583-.382.744-.254.16-.567.24-.937.24zm.153-1.319c-.102 0-.209.01-.323.031.016.266.024.567.024.902.036.003.077.004.125.004.523 0 .785-.162.785-.486 0-.301-.204-.451-.611-.451zm-2.227 1.572h-.994c-.135.425-.202.688-.202.788H52.4c0-.055.167-.505.502-1.349.334-.844.502-1.309.502-1.395h.813c0 .08.152.539.455 1.375.303.837.455 1.293.455 1.369h-.688c0-.093-.066-.356-.196-.788zm-.478-1.578h-.034c0 .054-.127.446-.381 1.175h.783c-.245-.725-.368-1.116-.368-1.175zm2.193 9.759c.658.677.986 1.523.986 2.54 0 1.017-.328 1.863-.986 2.539-.659.677-1.497 1.015-2.516 1.015-1.02 0-1.858-.338-2.516-1.015-.658-.676-.987-1.522-.987-2.539 0-1.017.329-1.863.987-2.54.658-.676 1.496-1.014 2.516-1.014 1.019 0 1.857.338 2.516 1.014zm-4.08.79c-.44.441-.66 1.024-.66 1.75s.22 1.309.66 1.749c.44.44.961.661 1.564.661.602 0 1.123-.221 1.564-.661.44-.44.66-1.023.66-1.749 0-.726-.22-1.309-.66-1.75-.441-.44-.962-.66-1.564-.66-.603 0-1.124.22-1.564.66zm-2.375-8.158c-.213 0-.505-.008-.878-.025.019-.424.028-.903.028-1.435 0-.511-.009-.948-.028-1.309h.376c.062 0 .154-.002.276-.006l.238-.006c.518 0 .893.126 1.126.379.233.253.35.556.35.91 0 .399-.131.747-.391 1.045-.262.298-.627.447-1.097.447zm.66-2.083c-.161-.184-.406-.277-.736-.277-.061 0-.146.006-.254.019.015.281.022.575.022.881 0 .336.007.669.021.999.094.018.187.027.28.027.308 0 .537-.094.685-.281a1.07 1.07 0 0 0 .223-.686c0-.27-.081-.497-.241-.682zm-1.642 14.53c-.658.677-1.497 1.015-2.516 1.015s-1.858-.338-2.515-1.015c-.658-.676-.988-1.522-.988-2.539 0-1.017.33-1.863.988-2.54.657-.676 1.496-1.014 2.515-1.014 1.019 0 1.858.338 2.516 1.014.658.677.987 1.523.987 2.54 0 1.017-.329 1.863-.987 2.539zm-.952-4.289c-.44-.44-.961-.66-1.564-.66-.602 0-1.123.22-1.563.66-.441.441-.661 1.024-.661 1.75s.22 1.309.661 1.749c.44.44.961.661 1.563.661.603 0 1.124-.221 1.564-.661.44-.44.66-1.023.66-1.749 0-.726-.22-1.309-.66-1.75zm-.304-8.183a34.872 34.872 0 0 0 0-2.744h.608a34.264 34.264 0 0 0 0 2.744h-.608zm-2.012.076a1.28 1.28 0 0 1-.951-.391c-.255-.261-.383-.592-.383-.994 0-.431.135-.788.404-1.072.27-.284.603-.426 1.001-.426.378 0 .695.13.95.39s.383.591.383.994c0 .432-.135.789-.404 1.073-.27.284-.603.426-1 .426zm.58-2.152a.714.714 0 0 0-.568-.274c-.209 0-.387.092-.533.276-.146.184-.219.417-.219.698 0 .292.077.53.231.713a.714.714 0 0 0 .567.275c.209 0 .387-.092.533-.277.146-.185.219-.417.219-.696 0-.294-.076-.532-.23-.715zm-2.7 1.076c.109.182.256.515.441 1h-.637c-.166-.498-.294-.804-.383-.921-.089-.117-.232-.175-.43-.175l-.239.002c0 .361.007.726.02 1.094h-.598a34.052 34.052 0 0 0 0-2.744h.372l.27-.006c.137-.004.263-.006.38-.006.658 0 .987.22.987.661 0 .35-.188.594-.564.731v.032c.145.039.272.15.381.332zm-.366-.939c0-.279-.183-.419-.55-.419-.135 0-.254.01-.357.029.015.218.023.502.023.852.079.003.146.004.2.004.456 0 .684-.155.684-.466zm-3.556 1.964c-.212 0-.505-.008-.878-.025.019-.424.028-.903.028-1.435 0-.511-.009-.948-.028-1.309h.377c.061 0 .153-.002.275-.006l.239-.006c.517 0 .893.126 1.126.379.233.253.349.556.349.91 0 .399-.13.747-.391 1.045-.261.298-.627.447-1.097.447zm.66-2.083c-.16-.184-.406-.277-.735-.277-.062 0-.147.006-.254.019.014.281.021.575.021.881 0 .336.007.669.022.999.093.018.186.027.279.027.309 0 .537-.094.686-.281.148-.188.222-.417.222-.686 0-.27-.08-.497-.241-.682zM37.05 9.917c0-.058-.197-.362-.591-.913-.413-.58-.648-.977-.706-1.19h-.034c.036.307.054.586.054.834 0 .347.01.77.03 1.269h-.529a29.948 29.948 0 0 0 0-2.744h.639c0 .075.177.372.531.892.377.552.594.926.649 1.123h.033a7.666 7.666 0 0 1-.052-.843c0-.381-.01-.771-.03-1.172h.538c-.02.349-.03.785-.03 1.309 0 .528.01 1.006.03 1.435h-.532zm-3.126-.788h-.994c-.134.425-.202.688-.202.788h-.647c0-.055.167-.505.502-1.349.335-.844.502-1.309.502-1.395h.813c0 .08.152.539.455 1.375.304.837.455 1.293.455 1.369h-.688c0-.093-.065-.356-.196-.788zm-.477-1.578h-.035c0 .054-.127.446-.38 1.175h.783c-.246-.725-.368-1.116-.368-1.175zm3.635 5.668c.713 0 1.394.136 2.043.408.648.272 1.168.636 1.557 1.09l-.876.857c-.658-.771-1.566-1.157-2.724-1.157a3.825 3.825 0 0 0-2.718 1.083c-.764.721-1.147 1.659-1.147 2.811 0 1.153.383 2.09 1.147 2.812a3.824 3.824 0 0 0 2.718 1.082c1.112 0 2.038-.363 2.78-1.089.482-.472.759-1.13.833-1.974h-3.613v-1.171h4.823c.046.254.069.499.069.735 0 1.361-.412 2.447-1.237 3.254-.936.962-2.154 1.444-3.655 1.444-1.437 0-2.658-.488-3.663-1.464-1.006-.976-1.508-2.186-1.508-3.629s.502-2.652 1.508-3.629c1.005-.975 2.226-1.463 3.663-1.463zm-9.817 6.156c-1.226.665-2.456 1.323-3.68 1.991-.165.091-.263.087-.4-.052-.871-.881-1.75-1.756-2.634-2.625-.129-.127-.132-.196 0-.323a456.884 456.884 0 0 0 3.073-2.997c.12-.118.206-.132.356-.049 1.212.673 2.429 1.336 3.644 2.003.375.206.668.473.684.909-.014.351-.183.598-.438.782-.19.137-.398.25-.605.361zm-7.164-1.461c-.105.102-.168.161-.308.021-3.463-3.46-6.932-6.915-10.4-10.372-.029-.029-.053-.063-.112-.134.26-.002.444.071.62.168 4.354 2.39 8.707 4.781 13.063 7.166.2.109.196.17.042.319a456.79 456.79 0 0 0-2.905 2.832zm-.779.404c.135.133.147.204.004.343a4003.785 4003.785 0 0 0-10.212 9.977c-.208.203-.354.182-.553.032-.364-.275-.503-.642-.503-1.08.001-1.844-.003-3.688-.004-5.533-.001-1.303 0-2.607 0-3.911h.005c0-3.114.002-6.228-.001-9.342 0-.382.076-.731.352-1.02.107-.112.185-.142.316-.01 2.139 2.138 4.283 4.271 6.427 6.404 1.388 1.382 2.775 2.764 4.169 4.14zm.871.859c.801.817 1.613 1.623 2.43 2.425.143.141.155.198-.04.303-4.056 2.175-8.109 4.357-12.164 6.537-.066.036-.129.095-.163.116 3.16-3.128 6.322-6.255 9.475-9.391.195-.195.286-.169.462.01zm46.509 4.009h-1.279v-9.749h1.279v9.749z"/></svg>