<svg xmlns="http://www.w3.org/2000/svg" width="120" height="87"><path fill="none" d="M0 0h120v87H0V0z"/><path fill-rule="evenodd" fill="#FFF" d="M112.363 73.703h-3.165v4.07h-1.969V67.195h4.866c2.315 0 3.905 1.011 3.905 3.224 0 2.006-1.37 3.284-3.637 3.284zm-.599-4.962h-2.566v3.461h2.74c1.275 0 2.141-.49 2.141-1.738 0-1.367-1.071-1.723-2.315-1.723zM98.71 73.703h-3.166v4.07h-1.968V67.195h4.866c2.314 0 3.905 1.011 3.905 3.224 0 2.006-1.37 3.284-3.637 3.284zm-.599-4.962h-2.567v3.461h2.741c1.275 0 2.141-.49 2.141-1.738 0-1.367-1.071-1.723-2.315-1.723zm-11.952 6.224h-4.44l-1.103 2.808h-2.031l4.33-10.592h2.095l4.329 10.592H87.23l-1.071-2.808zm-2.189-5.853l-1.748 4.457h3.418l-1.67-4.457zm-11.527 3.907H67.31v4.754h-1.968V67.195h1.968V71.4h5.133v-4.205h1.968v10.578h-1.968v-4.754zm-21.022 3.224l6.488-7.443h-6.016v-1.605h8.551v1.471l-6.535 7.503h6.724v1.604h-9.212v-1.53zm-6.63-9.048h1.984v10.578h-1.984V67.195zm-4.772 10.578h-2.11c-.283-.401-.299-1.129-.362-2.109-.11-1.665-.551-2.259-2.456-2.259h-2.614v4.368h-1.953V67.195h5.307c2.015 0 3.778.758 3.778 2.942 0 1.278-.676 2.214-1.857 2.6 1.432.297 1.574 1.322 1.669 2.407.11 1.262.142 2.154.598 2.629zm-4.692-9.062h-2.85v3.313h2.598c1.291 0 2.582-.178 2.582-1.694 0-1.396-1.149-1.619-2.33-1.619zm-12.803 9.062h-1.968V68.8h-3.575v-1.605h9.118V68.8h-3.575v8.973zm-9.322-3.075c0 2.392-2.252 3.313-4.456 3.313-2.662 0-4.725-1.189-4.725-3.744h1.937c0 1.634 1.307 2.273 2.898 2.273 1.511 0 2.409-.624 2.409-1.664 0-1.099-.961-1.292-2.614-1.693-2.378-.58-4.22-.951-4.22-3.105 0-1.887 1.622-3.09 4.141-3.09 2.283 0 4.095.965 4.189 3.327h-1.874c-.126-1.322-1.055-1.857-2.441-1.857-1.338 0-2.141.55-2.141 1.471 0 1.01.692 1.07 2.85 1.604 1.905.461 4.047.892 4.047 3.165zM41.776 46.642c.759-.615.84-.607.454-.786-4.641.632-7.547.867-10.23 1.192 5.973-1.489 10.717-2.682 15.643-5.054 4.457-2.146 9.695-6.332 12.334-8.179 3.309-2.318 5.412-3.39 5.412-3.39l-2.266-5.057c-3.868-8.626-5.309-8.957-8.603-12.428C43.484 1.834 42.817 1.905 43.292 2.022c6.153 1.518 23.967 11.637 33.386 22.757 0 0 6.269-9.048 6.252-12.484-.023-4.495-.393-5.724-.918-9.302 2.027 1.732 5.821 6.296 5.966 13.91.098 5.173-2.121 9.577-2.121 9.577s2.419.594 2.943 2.516c.127.464 1.205.83 1.205.83L88 30.252c-.665.747-1.017 1.073-1.679 1.754-2.713 2.791-1.933 2.111-4.017 3.796-2.009 1.624-3.054 2.034-6.212 3.451-5.703 2.263-11.182 1.45-16.877 2.221-4.359.589-7.77 1.597-11.684 3.938-3.307 2.353-14.534 8.524-11.368 5.992 2.497-1.925 4.517-3.873 5.613-4.762z"/></svg>