<svg xmlns="http://www.w3.org/2000/svg" width="98" height="34"><path fill-rule="evenodd" fill="#96B0F3" d="M92.556 33.994H4.659c-2.57 0-4.66-2.053-4.66-4.576V4.588c0-2.526 2.09-4.581 4.66-4.581h87.897c2.57 0 4.661 2.055 4.661 4.581v24.83c0 2.523-2.091 4.576-4.661 4.576zM96.01 4.588c0-1.872-1.55-3.395-3.454-3.395H4.659c-1.905 0-3.454 1.523-3.454 3.395v24.83c0 1.869 1.549 3.39 3.454 3.39h87.897c1.904 0 3.454-1.521 3.454-3.39V4.588zM83.386 22.462c.021.778.28 1.371.777 1.782.45.369 1.033.553 1.75.553.794 0 1.513-.124 2.163-.376l.281 1.219c-.757.327-1.656.486-2.694.486-1.241 0-2.219-.358-2.929-1.078-.709-.719-1.067-1.685-1.067-2.896 0-1.193.332-2.181.991-2.975.697-.843 1.632-1.264 2.809-1.264 1.159 0 2.033.421 2.626 1.264.472.673.71 1.502.71 2.488 0 .311-.023.576-.065.797h-5.352zm3.371-2.601c-.31-.485-.785-.732-1.422-.732-.583 0-1.056.244-1.42.717a2.582 2.582 0 0 0-.529 1.361h3.716c.009-.518-.104-.965-.345-1.346zm-.794-9.061c.025.734.603 1.051 1.273 1.051.484 0 .824-.075 1.146-.184l.153.702c-.357.15-.849.258-1.443.258-1.341 0-2.131-.809-2.131-2.052 0-1.128.696-2.187 2.021-2.187 1.341 0 1.783 1.085 1.783 1.978 0 .192-.017.342-.034.434h-2.768zm.959-1.711c-.645 0-.917.576-.959.993h1.816c.009-.376-.161-.993-.857-.993zm-3.89 1.168c0-.584-.221-1.035-.798-1.035-.408 0-.696.267-.815.576a.907.907 0 0 0-.043.309v2.437h-1.044V6.619h1.044V9.03h.017c.127-.191.306-.35.518-.458.212-.118.459-.184.722-.184.705 0 1.444.458 1.444 1.761v2.395h-1.045v-2.287zm-1.926 7.705v1.671a3.16 3.16 0 0 0-.562-.045c-.628 0-1.111.233-1.453.697-.298.412-.446.924-.446 1.557v4.14h-1.784v-5.409c0-.904-.016-1.733-.048-2.482h1.553l.066 1.51h.049c.186-.518.482-.936.892-1.247a2.158 2.158 0 0 1 1.289-.421c.164 0 .314.008.444.029zm-2.966-6.921c0 .502.136.752.535.752.187 0 .289-.009.408-.042l.017.776a2.339 2.339 0 0 1-.756.109c-.39 0-.705-.126-.9-.334-.229-.234-.331-.609-.331-1.144V9.247h-.586V8.48h.586v-.76l1.027-.284V8.48h.993v.767h-.993v1.794zM71.745 26.16c-1.181 0-2.122-.384-2.82-1.152-.699-.767-1.047-1.74-1.047-2.907 0-1.222.359-2.224 1.081-3.002.722-.782 1.691-1.167 2.913-1.167 1.183 0 2.128.381 2.844 1.153.681.742 1.023 1.708 1.023 2.887 0 1.216-.35 2.208-1.055 2.99-.74.798-1.72 1.198-2.939 1.198zm1.668-6.007c-.38-.627-.912-.939-1.606-.939-.714 0-1.26.312-1.632.939-.323.516-.481 1.145-.481 1.891 0 .726.158 1.345.481 1.862.382.626.922.937 1.619.937.678 0 1.214-.315 1.597-.957.333-.523.499-1.151.499-1.873 0-.721-.16-1.344-.477-1.86zm-1.176-9.905c0-.583-.221-1.026-.789-1.026-.416 0-.705.292-.816.601a.942.942 0 0 0-.051.326v2.395h-1.044V9.69c0-.468-.017-.86-.034-1.21h.909l.05.609h.026c.187-.318.637-.701 1.324-.701.722 0 1.469.458 1.469 1.744v2.412h-1.044v-2.296zm-5.877 2.388c-1.163 0-2.072-.785-2.072-2.095 0-1.335.892-2.153 2.14-2.153 1.231 0 2.055.851 2.055 2.086 0 1.494-1.07 2.162-2.123 2.162zm.043-3.506c-.739 0-1.036.71-1.036 1.385 0 .785.399 1.378 1.027 1.378.594 0 1.01-.568 1.01-1.394 0-.634-.288-1.369-1.001-1.369zm-1.006 6.997v1.964h1.969v1.313h-1.969v3.836c0 .973.35 1.456 1.044 1.456.319 0 .581-.023.792-.076l.05 1.328c-.352.13-.814.195-1.387.195-.701 0-1.255-.208-1.65-.633-.4-.42-.598-1.13-.598-2.126v-3.98h-1.171v-1.313h1.171v-1.445l1.749-.519zm-6.126 3.555c.961.376 1.664.823 2.117 1.333.45.509.677 1.141.677 1.897 0 .932-.331 1.692-.987 2.273-.729.64-1.738.957-3.033.957-1.201 0-2.161-.228-2.885-.681l.414-1.46a5.049 5.049 0 0 0 2.573.681c.675 0 1.196-.15 1.571-.446.372-.296.56-.694.56-1.198 0-.437-.155-.811-.461-1.116-.311-.303-.819-.582-1.536-.844-1.946-.712-2.922-1.757-2.922-3.131 0-.899.34-1.636 1.03-2.21.688-.572 1.599-.859 2.735-.859 1.012 0 1.854.174 2.527.518l-.45 1.429c-.627-.334-1.34-.504-2.136-.504-.629 0-1.122.157-1.477.453a1.305 1.305 0 0 0-.445.993c0 .43.171.789.511 1.074.299.259.838.539 1.617.841zm-.843-8.882c.025.734.602 1.051 1.273 1.051a3.37 3.37 0 0 0 1.146-.184l.153.702c-.357.15-.849.258-1.443.258-1.342 0-2.131-.809-2.131-2.052 0-1.128.696-2.187 2.02-2.187 1.342 0 1.783 1.085 1.783 1.978 0 .192-.017.342-.034.434h-2.767zm.959-1.711c-.645 0-.917.576-.959.993h1.816c.009-.376-.161-.993-.857-.993zm-4.22-2.47h1.043v5.925h-1.043V6.619zM52.1 12.636c-.535 0-1.011-.2-1.308-.701h-.017l-.051.609h-.891c.017-.276.034-.726.034-1.144V6.619h1.043v2.419h.018c.254-.392.704-.65 1.324-.65 1.011 0 1.732.826 1.724 2.061 0 1.461-.942 2.187-1.876 2.187zm-.23-3.447c-.424 0-.815.3-.925.751a1.201 1.201 0 0 0-.035.267v.659c0 .084.009.167.026.243a.953.953 0 0 0 .926.717c.654 0 1.053-.509 1.053-1.335 0-.718-.349-1.302-1.045-1.302zm-4.051 2.904h-.025c-.246.317-.679.543-1.223.543-.832 0-1.299-.593-1.299-1.211 0-1.018.925-1.543 2.454-1.535v-.067c0-.267-.111-.709-.841-.709-.407 0-.832.125-1.112.3l-.203-.667c.305-.184.84-.359 1.493-.359 1.325 0 1.707.826 1.707 1.719v1.46c0 .368.017.726.068.977h-.943l-.076-.451zm-.068-1.535c-.738-.009-1.443.141-1.443.759 0 .4.263.584.594.584a.857.857 0 0 0 .824-.559c.025-.075.025-.15.025-.226v-.558zm-1.823 8.783h.031c.599-.939 1.498-1.409 2.709-1.409.948 0 1.738.365 2.371 1.103.635.734.95 1.705.95 2.905 0 1.346-.37 2.403-1.114 3.184-.665.69-1.488 1.036-2.475 1.036-1.062 0-1.826-.372-2.29-1.122v4.144h-1.784v-8.498c0-.844-.023-1.707-.066-2.593h1.565l.103 1.25zm.182 3.394c0 .575.177 1.06.536 1.455.357.392.823.59 1.393.59.675 0 1.197-.252 1.572-.763.376-.508.564-1.179.564-2.015 0-.766-.178-1.4-.529-1.897-.388-.517-.906-.782-1.555-.782-.442 0-.837.143-1.196.43-.358.29-.593.666-.704 1.132a2.262 2.262 0 0 0-.081.536v1.314zM42.868 6.619h1.044v5.925h-1.044V6.619zm-.812 18.505c-.663.69-1.49 1.036-2.474 1.036-1.065 0-1.828-.372-2.291-1.122v4.144h-1.783v-8.498c0-.844-.023-1.707-.068-2.593h1.569l.098 1.25h.031c.598-.939 1.5-1.409 2.712-1.409.947 0 1.735.365 2.372 1.103.631.734.949 1.705.949 2.905 0 1.346-.371 2.403-1.115 3.184zm-1.232-5.019c-.387-.517-.904-.782-1.554-.782-.44 0-.837.143-1.196.43-.359.29-.591.666-.702 1.132a2.315 2.315 0 0 0-.081.536v1.314c0 .575.175 1.06.535 1.455.357.392.823.59 1.395.59.67 0 1.197-.252 1.57-.763.374-.508.56-1.179.56-2.015 0-.766-.174-1.4-.527-1.897zm.405-7.561h-1.044V8.48h1.044v4.064zm-.527-4.649c-.348 0-.577-.25-.577-.551 0-.316.238-.559.586-.559.357 0 .578.243.586.559 0 .301-.229.551-.595.551zm-3.083 4.198h-.026c-.246.317-.679.543-1.222.543-.832 0-1.299-.593-1.299-1.211 0-1.018.925-1.543 2.454-1.535v-.067c0-.267-.111-.709-.841-.709-.408 0-.832.125-1.112.3l-.204-.667c.305-.184.84-.359 1.494-.359 1.324 0 1.707.826 1.707 1.719v1.46c0 .368.016.726.068.977h-.943l-.076-.451zm-.069-1.535c-.738-.009-1.442.141-1.442.759 0 .4.263.584.594.584a.859.859 0 0 0 .824-.559c.024-.075.024-.15.024-.226v-.558zm-5.655 1.986L30.358 8.48h1.13l.67 2.061c.119.359.203.684.28 1.018h.026c.076-.334.17-.651.28-1.018l.662-2.061h1.096l-1.58 4.064h-1.027zm-3.483-1.594h-1.809l-.492 1.594h-1.079l1.835-5.625H28.2l1.859 5.625H28.93l-.518-1.594zm-.62-2.162c-.11-.342-.204-.726-.288-1.051h-.018c-.084.325-.178.717-.272 1.051l-.44 1.386h1.468l-.45-1.386zm3.024 6.251l3.602 10.943h-1.901l-1.039-3.212H27.86l-.993 3.212h-1.848L28.6 15.039h2.216zm.345 6.382l-.937-2.858c-.102-.294-.291-.981-.565-2.062h-.031a87.438 87.438 0 0 1-.53 2.062l-.926 2.858h2.989zm-13.078 5.944h-7.841c-1.009 0-1.831-.804-1.831-1.795V8.442c0-.991.822-1.796 1.831-1.796h7.841c1.008 0 1.83.805 1.83 1.796V25.57c0 .991-.822 1.795-1.83 1.795zm-3.922-.955a.938.938 0 0 0 .946-.93.939.939 0 0 0-.946-.931.94.94 0 0 0-.944.931c0 .513.424.93.944.93zm.909-17.944h-1.817a.216.216 0 0 0-.215.214c0 .112.099.208.215.208h1.817a.215.215 0 0 0 .217-.208.216.216 0 0 0-.217-.214zm3.731 1.798H9.523v13.489h9.278V10.264z"/></svg>