<svg xmlns="http://www.w3.org/2000/svg" width="16" height="16"><path fill-rule="evenodd" fill="#B3C8DE" d="M13.942 11.364l-.065-.198c-.152-.454-.654-.928-1.117-1.055l-1.708-.467c-.463-.125-1.123.044-1.463.384l-.618.618A6.564 6.564 0 0 1 4.357 6.03l.618-.618c.339-.338.508-.998.382-1.462l-.465-1.709c-.126-.462-.603-.965-1.057-1.117l-.194-.065c-.456-.152-1.106.002-1.445.342l-.925.925C1.106 2.49 1 2.959 1 2.961a10.934 10.934 0 0 0 3.196 7.843 10.927 10.927 0 0 0 7.816 3.195c.016 0 .5-.103.665-.268l.925-.926c.339-.337.491-.987.34-1.441z"/><path fill="none" d="M0 0h16v16H0V0z"/></svg>