<svg xmlns="http://www.w3.org/2000/svg" width="19" height="18"><path fill="none" d="M.67 0h18v18h-18V0z"/><path fill-rule="evenodd" fill="#919191" d="M13.972 14.637a.52.52 0 0 1-.503.363H4.293a.53.53 0 0 1-.418-.201.504.504 0 0 1-.107-.315h-.001V5.748c0-.301.251-.546.56-.546h1.08V3.003h5.005l1.598 1.558 1.496 1.459h.001l.101.099v.483h.67c.309 0 .56.245.56.546v1.253h.716c.297 0 .514.25.514.595v.035l-2.096 5.606zM5.407 5.602h-1.08a.149.149 0 0 0-.15.146v7.532l1.23-3.272V5.602zm5.125-1.917v2.317h2.376l-2.376-2.317zm2.666 2.917v-.2h-3.076v-3H5.817v5.516l.058-.154a.514.514 0 0 1 .502-.363h6.821V6.602zm1.23.546a.148.148 0 0 0-.15-.146h-.67v1.399h.82V7.148zm1.126 1.653H6.377a.117.117 0 0 0-.112.084l-.005.016-.853 2.28v-.001l-1.231 3.294c-.008.03.012.065.025.082a.116.116 0 0 0 .092.044h9.176a.116.116 0 0 0 .112-.084l2.075-5.551c-.005-.055-.025-.164-.102-.164zM7.047 4.602h2.05c.113 0 .205.089.205.2 0 .111-.092.2-.205.2h-2.05a.202.202 0 0 1-.205-.2c0-.111.092-.2.205-.2zm0 1.4h2.05c.113 0 .205.089.205.2 0 .111-.092.2-.205.2h-2.05a.202.202 0 0 1-.205-.2c0-.111.092-.2.205-.2zm0 1.4h4.921c.113 0 .204.089.204.199 0 .111-.091.2-.204.2H7.047a.202.202 0 0 1-.205-.2c0-.11.092-.199.205-.199z"/></svg>