<svg xmlns="http://www.w3.org/2000/svg" width="12" height="12"><path fill="none" d="M0 0h12v12H0V0z"/><path fill-rule="evenodd" fill="#747486" d="M8.651 10c-1.295 0-2.348-.784-2.348-1.75v-.8a2.003 2.003 0 0 1-.802.161c-.295 0-.573-.059-.805-.163v.802c0 .966-1.052 1.75-2.348 1.75C1.053 10 0 9.216 0 8.25c0-.067.007-.133.016-.198l.011-.062.002-.013.417-2.036c.054-.47.41-.882.929-1.133l.198-1.48c0-.628.739-1.141 1.625-1.141.883 0 1.728.511 1.728 1.139a.692.692 0 0 1-.006.093l-.012.163c.178-.063.379-.098.593-.098.212 0 .413.035.588.096l-.011-.161a.582.582 0 0 1-.007-.093c0-.63.843-1.139 1.729-1.139.885 0 1.625.513 1.625 1.141l.198 1.48c.518.253.875.663.928 1.133l.417 2.036c0 .004.003.008.003.013l.011.062c.009.065.015.131.018.198C11 9.216 9.945 10 8.651 10zM2.348 7.13c-.917 0-1.692.511-1.692 1.12 0 .606.775 1.12 1.692 1.12.917 0 1.692-.514 1.692-1.12 0-.607-.775-1.12-1.692-1.12zm3.153-1.01c-.385 0-.699.211-.699.468 0 .258.314.468.699.468.385 0 .699-.21.699-.468 0-.257-.314-.468-.699-.468zm3.148 1.01c-.917 0-1.692.511-1.692 1.12 0 .606.775 1.12 1.692 1.12.918 0 1.693-.514 1.693-1.12 0-.607-.775-1.12-1.693-1.12zm-.257-5.179a2.474 2.474 0 0 0-.592-.07c-.359 0-.721.076-1.042.213a.112.112 0 0 1-.155-.093l-.022-.347c0-.362.484-.654.991-.654.494 0 .906.279.929.626l.027.208c.011.073-.061.134-.136.117zm-4.155.143a2.672 2.672 0 0 0-1.041-.213c-.205 0-.406.024-.593.07-.077.019-.147-.044-.138-.115l.028-.208c.024-.347.434-.626.928-.626.507 0 .992.292.992.654l-.023.347a.11.11 0 0 1-.153.091z"/></svg>