<svg xmlns="http://www.w3.org/2000/svg" width="18" height="18"><path fill="none" d="M0 0h18v18H0V0z"/><path fill-rule="evenodd" fill="#919191" d="M15.153 14.501H1.295a.244.244 0 0 1-.248-.239V3.735c0-.132.111-.24.248-.24h13.858c.136 0 .247.108.247.24v10.527a.243.243 0 0 1-.247.239zm-.248-10.527H1.543v10.049h13.362V3.974zM6.827 9.062a.253.253 0 0 1 .338.011l1.174 1.134 2.424-2.566a.251.251 0 0 1 .35-.015l2.97 2.632c.1.089.107.24.015.337a.254.254 0 0 1-.35.016l-2.787-2.47-2.271 2.405 1.189 1.15a.233.233 0 0 1 0 .338.252.252 0 0 1-.35 0L6.98 9.57l-4.037 3.436a.251.251 0 0 1-.349-.021.235.235 0 0 1 .022-.338l4.211-3.585zm-1.82-.27c-.76 0-1.379-.598-1.379-1.332 0-.735.619-1.333 1.379-1.333s1.378.598 1.378 1.333c0 .734-.618 1.332-1.378 1.332zm0-2.186c-.487 0-.883.383-.883.854 0 .47.396.854.883.854s.883-.384.883-.854c0-.471-.396-.854-.883-.854z"/></svg>