<svg xmlns="http://www.w3.org/2000/svg" width="19" height="18"><path fill="none" d="M.54 0h18v18h-18V0z"/><path fill-rule="evenodd" fill="#919191" d="M15.669 14.997H3.871c-.078 0-.317-.078-.236-.331l2.491-6.863a.252.252 0 0 1 .237-.179h.999c-.295-.679-.501-1.304-.501-1.734 0-1.608 1.283-2.884 2.831-2.884 1.573 0 2.831 1.301 2.831 2.884 0 .389-.168.972-.493 1.734h1.148c.106 0 .211.076.236.179l2.492 6.863c.078.228-.131.343-.237.331zM9.692 3.513c-1.286 0-2.307 1.073-2.307 2.374 0 1.019 1.52 3.674 2.307 4.975.315-.51 2.308-3.591 2.308-4.975 0-1.303-1.025-2.374-2.308-2.374zm3.302 4.62h-1.193c-.06.13-2.109 3.699-2.109 3.699S8.348 9.703 7.596 8.133h-1.05l-2.307 6.354h11.063l-2.308-6.354zm-1.492 4.669H8.067v-.51h3.435v.51zM8.487 5.657c0-.637.551-1.174 1.205-1.174s1.206.537 1.206 1.174c0 .639-.524 1.173-1.206 1.173a1.186 1.186 0 0 1-1.205-1.173zm1.887-.025a.669.669 0 0 0-.682-.664.67.67 0 0 0-.682.664c0 .358.315.664.682.664a.668.668 0 0 0 .682-.664z"/></svg>