<svg xmlns="http://www.w3.org/2000/svg" width="15" height="15"><path fill="none" d="M0 0h15v15H0V0z"/><path fill-rule="evenodd" fill="#FFF" d="M12.987 11.982H2.322s-.79.013-.79-.854V6.832s2.859 1.316 6.101 1.316c3.526 0 6.188-1.276 6.188-1.276v4.256s.051.855-.834.854zm-4.294-3.65H6.66v.546a.52.52 0 0 0 .508.529h1.018c.28 0 .507-.237.507-.529v-.546zM1.532 6.269V4.6s-.031-.854.803-.854h3.282v-.413s-.09-1.722 1.653-1.722h.782s1.654-.106 1.654 1.709v.426h3.269s.846-.04.846.854v1.656s-3.308 1.339-6.17 1.339c-2.62 0-6.119-1.326-6.119-1.326zm7.1-2.971s.03-.881-.948-.881c0 0-.963.013-.963.868v.44h1.911v-.427zm.061 3.165H6.66v.816l2.033-.001v-.815z"/></svg>