<svg xmlns="http://www.w3.org/2000/svg" width="523.5" height="56.5"><path fill-rule="evenodd" stroke="#E8E9EC" fill="#F7F7F7" d="M4.5.5h514a4 4 0 0 1 4 4v47a4 4 0 0 1-4 4H4.5a4 4 0 0 1-4-4v-47a4 4 0 0 1 4-4z"/><path fill-rule="evenodd" fill="#E2E2E2" d="M509.501 27.837L503 34.5l-1.5-1.537 5.329-5.463-5.329-5.463 1.5-1.538 6.501 6.664-.329.337.329.337z"/><text font-family="Clear Sans" font-size="12" x="32.5" y="43.5"><tspan dy="-19">Однопостовая мойка самообслуживания</tspan><tspan x="32.5" dy="1.25em">Вознаграждение 100% стоимости аренды первого месяца за нахождение арендатора...</tspan></text><path fill-rule="evenodd" fill="#54CF7C" d="M22.487 25.483H11.822s-.791.012-.791-.854v-4.297s2.86 1.316 6.102 1.316c3.526 0 6.188-1.276 6.188-1.276v4.257s.051.854-.834.854zm-4.294-3.651H16.16v.546a.52.52 0 0 0 .508.529h1.018c.28 0 .507-.237.507-.529v-.546zm-7.162-2.063v-1.668s-.03-.854.804-.854h3.282v-.414s-.09-1.722 1.653-1.722h.782s1.654-.106 1.654 1.709v.427h3.269s.846-.041.846.854v1.655s-3.308 1.339-6.17 1.339c-2.62 0-6.12-1.326-6.12-1.326zm7.101-2.971s.03-.881-.948-.881c0 0-.963.013-.963.868v.44h1.911v-.427zm.061 3.165H16.16v.816l2.033-.001v-.815z"/><path fill="none" d="M9.5 13.5h15v15h-15v-15z"/></svg>