<svg xmlns="http://www.w3.org/2000/svg"
     x="0px" y="0px"
     width="800.932px" height="750px"
     viewBox="-95 21 800.932 750"
     enable-background="new -95 21 800.932 750" xml:space="preserve">
<g>
	<path d="M305.466,63.943c24.967,0,44.94,19.973,44.94,44.94c0,23.968-19.974,44.94-44.94,44.94c-24.966,0-44.94-20.972-44.94-44.94
		C260.526,83.916,280.5,63.943,305.466,63.943L305.466,63.943L305.466,63.943z M-74.028,129.855h294.607
		c8.988,37.949,43.941,66.911,84.887,66.911s75.899-28.961,85.886-66.911H684.96c11.984,0,20.972-9.987,20.972-20.972
		c0-11.984-8.987-21.971-20.972-21.971H391.352C381.365,48.963,346.411,21,305.466,21s-75.898,27.963-84.887,65.912H-74.028
		C-85.013,86.912-95,96.899-95,108.883C-95,119.868-85.013,129.855-74.028,129.855L-74.028,129.855L-74.028,129.855z
		 M115.719,350.56c24.966,0,44.94,19.974,44.94,44.94c0,24.967-19.974,44.94-44.94,44.94c-24.967,0-44.94-19.973-44.94-44.94
		C70.779,370.534,90.753,350.56,115.719,350.56L115.719,350.56L115.719,350.56z M-74.028,417.471h104.86
		c9.987,37.949,43.941,65.912,84.887,65.912c40.945,0,75.898-27.963,85.885-65.912H684.96c11.984,0,20.972-9.987,20.972-21.971
		s-8.987-20.972-20.972-20.972H201.605c-9.987-38.948-44.94-66.911-85.885-66.911c-40.946,0-74.9,27.963-84.887,66.911h-104.86
		C-85.013,374.529-95,383.516-95,395.5S-85.013,417.471-74.028,417.471L-74.028,417.471L-74.028,417.471z M618.049,637.178
		c24.967,0,44.94,20.972,44.94,45.938c0,23.968-19.974,44.94-44.94,44.94c-23.968,0-44.939-20.973-44.939-44.94
		C573.11,658.15,594.081,637.178,618.049,637.178L618.049,637.178L618.049,637.178z M618.049,771
		c48.936,0,87.883-39.946,87.883-87.883c0-48.935-38.947-88.882-87.883-88.882c-40.945,0-74.899,28.962-84.887,66.911h-607.19
		c-10.985,0-20.972,9.986-20.972,21.971c0,10.985,9.987,20.972,20.972,20.972h607.19C543.15,742.039,577.104,771,618.049,771
		L618.049,771z"/>
</g>
</svg>
