<svg xmlns="http://www.w3.org/2000/svg"
     x="0px" y="0px"
     width="750px" height="750px"
     viewBox="-69 21 750 750"
     enable-background="new -69 21 750 750"
     xml:space="preserve">
<path fill="#FFCC33" d="M306,21C98.847,21-69,188.847-69,396c0,207.153,167.847,375,375,375c207.153,0,375-167.847,375-375
	C681,188.847,513.153,21,306,21z M611.949,335.979l-250.178,92.423c-4.248,37.181-35.587,66.395-74.362,66.395
	c-41.431,0-74.894-33.463-74.894-74.894c0-25.496,12.748-47.805,31.869-61.615V188.316c0-23.371,19.122-42.493,42.493-42.493
	c23.372,0,42.494,19.122,42.494,42.493v169.972c3.187,2.125,5.842,4.249,8.498,6.905l250.177-92.422
	c3.718-1.593,7.436-2.125,11.686-2.125c13.811,0,26.559,9.029,31.339,21.777c3.187,8.499,2.655,17.528-1.063,25.496
	C626.821,326.417,620.447,332.792,611.949,335.979z"/>
</svg>
