<svg xmlns="http://www.w3.org/2000/svg" width="18" height="18"><path fill="none" d="M0 0h18v18H0V0z"/><path fill-rule="evenodd" fill="#FFF" d="M13.011 15c-1.649 0-2.989-1.046-2.989-2.334V11.6a2.448 2.448 0 0 1-1.021.214c-.376 0-.728-.078-1.024-.216v1.068C7.977 13.954 6.638 15 4.989 15 3.339 15 2 13.954 2 12.666c0-.089.008-.176.02-.263l.014-.083.003-.018.531-2.714c.069-.627.522-1.176 1.181-1.511l.253-1.973c0-.837.941-1.522 2.068-1.522 1.124 0 2.2.682 2.2 1.52a.842.842 0 0 1-.009.124l-.014.216c.227-.083.482-.13.754-.13.27 0 .525.047.749.127l-.015-.213a1.046 1.046 0 0 1-.008-.124c0-.841 1.073-1.52 2.2-1.52 1.127 0 2.068.685 2.068 1.522l.252 1.973c.66.338 1.113.884 1.182 1.511l.531 2.714.002.018.015.083c.011.087.02.174.023.263C16 13.954 14.658 15 13.011 15zm-8.022-3.827c-1.168 0-2.154.682-2.154 1.493 0 .809.986 1.494 2.154 1.494 1.167 0 2.154-.685 2.154-1.494 0-.808-.987-1.493-2.154-1.493zm4.012-1.346c-.49 0-.889.28-.889.624s.399.624.889.624c.491 0 .889-.28.889-.624s-.398-.624-.889-.624zm4.007 1.346c-1.167 0-2.154.682-2.154 1.493 0 .809.987 1.494 2.154 1.494 1.168 0 2.154-.685 2.154-1.494 0-.808-.986-1.493-2.154-1.493zm-.327-6.905a3.03 3.03 0 0 0-.754-.093c-.456 0-.918.101-1.325.283-.089.041-.19-.023-.198-.124l-.029-.462c0-.482.617-.872 1.262-.872.628 0 1.153.372 1.182.834l.034.278a.14.14 0 0 1-.172.156zm-5.289.19a3.275 3.275 0 0 0-1.325-.283c-.261 0-.516.032-.754.093a.14.14 0 0 1-.175-.153l.034-.278c.032-.462.554-.834 1.182-.834.645 0 1.262.39 1.262.872l-.029.462a.139.139 0 0 1-.195.121z"/></svg>