<svg xmlns="http://www.w3.org/2000/svg" width="108" height="30"><path fill="none" d="M0 0h108v30H0V0z"/><path fill-rule="evenodd" fill="#3366E5" d="M101.617 16.457h-2.073v2.764h-1.29v-7.182h3.188c1.516 0 2.558.686 2.558 2.189 0 1.362-.898 2.229-2.383 2.229zm-.392-3.369h-1.681v2.35h1.795c.835 0 1.402-.333 1.402-1.18 0-.928-.701-1.17-1.516-1.17zm-8.552 3.369h-2.074v2.764h-1.29v-7.182h3.188c1.516 0 2.558.686 2.558 2.189 0 1.362-.897 2.229-2.382 2.229zm-.392-3.369h-1.682v2.35h1.795c.835 0 1.403-.333 1.403-1.18 0-.928-.702-1.17-1.516-1.17zm-7.831 4.226h-2.909l-.722 1.907h-1.331l2.837-7.192h1.372l2.837 7.192h-1.382l-.702-1.907zm-1.434-3.974l-1.145 3.026h2.239l-1.094-3.026zm-7.552 2.653h-3.362v3.228h-1.29v-7.182h1.29v2.855h3.362v-2.855h1.29v7.182h-1.29v-3.228zm-13.772 2.189l4.25-5.054h-3.941v-1.089h5.602v.998l-4.281 5.095h4.405v1.089h-6.035v-1.039zm-4.343-6.143h1.299v7.182h-1.299v-7.182zm-3.126 7.182H52.84c-.186-.272-.196-.767-.237-1.432-.073-1.13-.361-1.534-1.609-1.534h-1.713v2.966h-1.279v-7.182h3.476c1.321 0 2.476.514 2.476 1.997 0 .868-.444 1.503-1.217 1.765.939.202 1.031.898 1.094 1.635.072.857.092 1.462.392 1.785zm-3.075-6.153h-1.867v2.249h1.702c.846 0 1.692-.121 1.692-1.15 0-.948-.753-1.099-1.527-1.099zm-8.387 6.153h-1.29v-6.093h-2.342v-1.089h5.974v1.089h-2.342v6.093zm-6.108-2.088c0 1.624-1.475 2.249-2.919 2.249-1.744 0-3.095-.807-3.095-2.542h1.269c0 1.11.856 1.544 1.898 1.544.99 0 1.578-.424 1.578-1.13 0-.746-.629-.878-1.712-1.15-1.558-.393-2.765-.646-2.765-2.108 0-1.281 1.063-2.098 2.713-2.098 1.496 0 2.683.655 2.744 2.259h-1.227c-.083-.897-.692-1.261-1.599-1.261-.877 0-1.403.374-1.403.999 0 .686.454.726 1.867 1.089 1.248.313 2.651.606 2.651 2.149zm-16.131-.331c-.975 1.005-.695.76-1.444 1.367-.722.584-1.098.732-2.232 1.242-2.05.815-4.019.522-6.066.799-1.566.213-2.792.575-4.199 1.418-1.188.847-5.223 3.069-4.085 2.157.897-.693 1.623-1.394 2.017-1.714.273-.222.302-.219.164-.283-1.668.228-2.713.312-3.677.429 2.146-.536 3.851-.965 5.622-1.819 1.601-.773 3.484-2.28 4.432-2.945 1.189-.834 1.945-1.22 1.945-1.22l-.814-1.821c-1.39-3.105-1.908-3.224-3.092-4.474-3.966-3.998-4.205-3.972-4.035-3.93 2.211.546 8.613 4.189 11.998 8.192 0 0 2.253-3.257 2.247-4.494-.008-1.618-.141-2.061-.33-3.349.729.624 2.092 2.267 2.144 5.008.035 1.862-.762 3.448-.762 3.448s.869.214 1.058.906c.045.167.432.298.432.298l-.72.154c-.239.269-.365.386-.603.631z"/></svg>